<svg xmlns="http://www.w3.org/2000/svg" xmlns:xlink="http://www.w3.org/1999/xlink" width="500" zoomAndPan="magnify" viewBox="0 0 375 374.999991" height="500" preserveAspectRatio="xMidYMid meet" version="1.0"><defs><g/><clipPath id="4f36db428d"><path d="M 74.257812 128 L 77 128 L 77 146 L 74.257812 146 Z M 74.257812 128 " clip-rule="nonzero"/></clipPath><clipPath id="61fd731065"><path d="M 143 28.367188 L 151 28.367188 L 151 32 L 143 32 Z M 143 28.367188 " clip-rule="nonzero"/></clipPath><clipPath id="aa5ba77129"><path d="M 271 206 L 274.507812 206 L 274.507812 210 L 271 210 Z M 271 206 " clip-rule="nonzero"/></clipPath></defs><path fill="#ffffff" d="M 118.164062 242.09375 C 115.855469 239.71875 111.816406 235.808594 110.152344 234.757812 C 110.0625 234.714844 109.929688 234.675781 109.828125 234.675781 C 109.855469 235.800781 120.351562 245.964844 121.527344 246.007812 C 121.496094 245.597656 119.679688 243.652344 118.164062 242.09375 " fill-opacity="1" fill-rule="nonzero"/><path fill="#ffffff" d="M 131.792969 251.9375 C 129.367188 249.867188 124.96875 246.480469 122.800781 245.640625 C 122.640625 245.597656 122.398438 245.53125 122.316406 245.605469 C 121.894531 245.984375 124.652344 248.582031 127.492188 250.769531 C 131.128906 253.574219 134.449219 255.613281 135.042969 255.410156 C 135.238281 254.972656 133.09375 253.046875 131.792969 251.9375 " fill-opacity="1" fill-rule="nonzero"/><path fill="#ffffff" d="M 86.425781 198.960938 C 86.371094 198.90625 86.277344 198.851562 86.203125 198.851562 C 86.183594 200.324219 93.195312 213.730469 94.019531 213.792969 C 94.027344 213.199219 92.628906 210.265625 91.792969 208.566406 C 90.332031 205.605469 87.585938 200.375 86.425781 198.960938 " fill-opacity="1" fill-rule="nonzero"/><path fill="#ffffff" d="M 95.152344 213.347656 C 95.007812 213.277344 94.828125 213.195312 94.734375 213.285156 C 93.824219 214.214844 102.054688 226.378906 104.007812 226.988281 C 104.761719 227.226562 103.941406 225.203125 102.007812 222.078125 C 100.207031 219.152344 96.886719 214.511719 95.152344 213.347656 " fill-opacity="1" fill-rule="nonzero"/><path fill="#ffffff" d="M 114.320312 234.136719 C 112.324219 231.476562 108.484375 227.304688 106.179688 226.359375 C 105.988281 226.308594 105.722656 226.242188 105.574219 226.347656 C 103.988281 227.445312 113.265625 238.300781 116.136719 238.707031 C 117.191406 238.851562 116.445312 236.972656 114.320312 234.136719 " fill-opacity="1" fill-rule="nonzero"/><path fill="#ffffff" d="M 80.242188 183.324219 C 80.335938 183.613281 80.476562 184.035156 80.652344 184.554688 C 80.511719 184.136719 80.371094 183.714844 80.242188 183.3125 L 80.242188 183.324219 " fill-opacity="1" fill-rule="nonzero"/><path fill="#ffffff" d="M 90.453125 203.914062 C 91.558594 204.535156 91.363281 202.058594 90.003906 198.148438 C 88.832031 194.769531 86.394531 189.457031 84.644531 188.210938 C 84.542969 188.164062 84.394531 188.09375 84.285156 188.117188 C 82.460938 188.464844 87.941406 202.492188 90.453125 203.914062 " fill-opacity="1" fill-rule="nonzero"/><path fill="#ffffff" d="M 100.699219 217.679688 C 102.207031 218.175781 102.097656 215.804688 100.449219 212.164062 C 99.019531 209.015625 95.925781 204.113281 93.519531 203.070312 C 93.308594 203.023438 93.027344 202.957031 92.816406 203.089844 C 90.707031 204.410156 97.265625 216.546875 100.699219 217.679688 " fill-opacity="1" fill-rule="nonzero"/><path fill="#ffffff" d="M 112.734375 229.929688 C 114.929688 230.652344 115.101562 228.34375 113.113281 224.78125 C 111.234375 221.417969 107.53125 217.332031 104.816406 216.601562 C 104.554688 216.574219 104.195312 216.53125 103.917969 216.675781 C 101.324219 218.046875 108.246094 228.449219 112.734375 229.929688 " fill-opacity="1" fill-rule="nonzero"/><path fill="#ffffff" d="M 78.472656 172.265625 C 78.417969 172.214844 78.332031 172.152344 78.257812 172.132812 C 77.15625 172.816406 81.472656 188.546875 82.875 188.960938 C 83.429688 188.617188 82.410156 184.1875 82.082031 182.839844 C 81.285156 179.535156 79.597656 173.738281 78.472656 172.265625 " fill-opacity="1" fill-rule="nonzero"/><path fill="#ffffff" d="M 89.511719 192.839844 C 91.289062 193.820312 91.933594 190.988281 90.953125 186.527344 C 90.171875 182.976562 88.003906 177.492188 85.632812 176.414062 C 85.472656 176.378906 85.25 176.335938 85.089844 176.371094 C 82.035156 177.039062 85.714844 190.738281 89.511719 192.839844 " fill-opacity="1" fill-rule="nonzero"/><path fill="#ffffff" d="M 99.507812 206.945312 C 102.042969 208.234375 103.042969 205.449219 101.644531 200.984375 C 100.585938 197.601562 97.707031 192.449219 94.621094 191.574219 C 94.417969 191.550781 94.132812 191.523438 93.929688 191.570312 C 90.316406 192.429688 94.695312 204.496094 99.507812 206.945312 " fill-opacity="1" fill-rule="nonzero"/><path fill="#ffffff" d="M 111.605469 219.667969 C 114.945312 221.207031 116.34375 218.539062 114.542969 214.070312 C 113.265625 210.910156 109.835938 206.175781 106.207031 205.550781 C 105.875 205.542969 105.421875 205.53125 105.019531 205.722656 C 101.632812 207.324219 106.3125 217.230469 111.605469 219.667969 " fill-opacity="1" fill-rule="nonzero"/><path fill="#ffffff" d="M 81.730469 177.355469 C 82.984375 178.476562 83.558594 175.683594 83.007812 171.128906 C 82.578125 167.574219 81.222656 162.007812 79.554688 160.765625 C 79.445312 160.722656 79.285156 160.65625 79.167969 160.679688 C 76.90625 161.082031 79.039062 174.957031 81.730469 177.355469 " fill-opacity="1" fill-rule="nonzero"/><path fill="#ffffff" d="M 94.664062 173.972656 C 94.273438 170.394531 92.382812 164.960938 89.398438 164.082031 C 89.183594 164.0625 88.894531 164.039062 88.6875 164.089844 C 85 164.949219 86.550781 177.078125 90.761719 180.308594 C 93.339844 182.285156 95.234375 179.207031 94.664062 173.972656 " fill-opacity="1" fill-rule="nonzero"/><path fill="#ffffff" d="M 105.394531 188.480469 C 104.679688 184.90625 102.050781 179.574219 98.4375 178.921875 C 98.179688 178.914062 97.824219 178.914062 97.574219 178.976562 C 93.378906 180.054688 95.589844 191.222656 100.6875 194.695312 C 104.164062 197.066406 106.492188 193.988281 105.394531 188.480469 " fill-opacity="1" fill-rule="nonzero"/><path fill="#ffffff" d="M 118.265625 201.96875 C 117.308594 198.558594 114.117188 193.566406 110.007812 193.144531 C 109.71875 193.152344 109.324219 193.175781 109.042969 193.253906 C 104.441406 194.566406 107.457031 205.152344 113.289062 208.152344 C 117.246094 210.191406 119.707031 207.128906 118.265625 201.96875 " fill-opacity="1" fill-rule="nonzero"/><path fill="#ffffff" d="M 83.476562 165.261719 C 85.257812 166.792969 86.757812 163.847656 86.6875 158.957031 C 86.632812 155.398438 85.554688 149.914062 83.324219 148.867188 C 83.160156 148.835938 82.933594 148.792969 82.769531 148.828125 C 79.585938 149.488281 80.140625 162.390625 83.476562 165.261719 " fill-opacity="1" fill-rule="nonzero"/><path fill="#ffffff" d="M 100.824219 160.871094 C 100.753906 157.277344 99.109375 151.925781 95.675781 151.285156 C 95.546875 151.28125 95.371094 151.265625 95.242188 151.277344 C 90.679688 151.601562 90.167969 162.546875 94.511719 166.890625 C 97.640625 170.015625 100.941406 166.867188 100.824219 160.871094 " fill-opacity="1" fill-rule="nonzero"/><path fill="#ffffff" d="M 111.3125 174.953125 C 110.925781 171.34375 108.582031 166.070312 104.578125 165.636719 C 104.429688 165.644531 104.230469 165.640625 104.082031 165.660156 C 98.921875 166.273438 99.335938 177.304688 104.671875 181.394531 C 108.476562 184.308594 111.949219 180.9375 111.3125 174.953125 " fill-opacity="1" fill-rule="nonzero"/><path fill="#ffffff" d="M 124.011719 188.507812 C 123.347656 184.90625 120.390625 179.742188 115.902344 179.523438 C 115.738281 179.539062 115.515625 179.546875 115.351562 179.574219 C 110.050781 180.410156 110.824219 190.648438 116.496094 194.789062 C 121.089844 198.140625 125.164062 194.734375 124.011719 188.507812 " fill-opacity="1" fill-rule="nonzero"/><path fill="#ffffff" d="M 87.433594 152.371094 C 89.699219 154.988281 92.441406 151.960938 92.863281 146.367188 C 93.132812 142.828125 92.273438 137.460938 89.519531 136.625 C 89.414062 136.617188 89.273438 136.589844 89.167969 136.59375 C 85.34375 136.660156 84.046875 148.457031 87.433594 152.371094 " fill-opacity="1" fill-rule="nonzero"/><path fill="#ffffff" d="M 100.75 153.5625 C 103.972656 157.210938 108.3125 153.914062 108.625 147.585938 C 108.800781 144.007812 107.375 138.78125 103.65625 138.355469 C 98.082031 138.59375 96.917969 149.21875 100.75 153.5625 " fill-opacity="1" fill-rule="nonzero"/><path fill="#ffffff" d="M 118.882812 161.1875 C 118.75 157.570312 116.632812 152.375 112.347656 152.152344 C 106.082031 152.699219 105.824219 163.460938 110.582031 167.621094 C 114.542969 171.089844 119.121094 167.539062 118.882812 161.1875 " fill-opacity="1" fill-rule="nonzero"/><path fill="#ffffff" d="M 122.089844 180.726562 C 126.832031 184.808594 132.105469 181.179688 131.339844 174.355469 C 130.933594 170.726562 128.210938 165.605469 123.4375 165.585938 C 116.941406 166.390625 116.984375 176.332031 122.089844 180.726562 " fill-opacity="1" fill-rule="nonzero"/><path fill="#ffffff" d="M 100.867188 133.679688 C 101.378906 130.171875 100.707031 124.953125 97.605469 124.34375 C 92.671875 124.28125 90.652344 135.664062 93.828125 139.617188 C 96.320312 142.714844 100.003906 139.605469 100.867188 133.679688 " fill-opacity="1" fill-rule="nonzero"/><path fill="#ffffff" d="M 141.105469 241.1875 C 144.992188 242.175781 146.535156 239.722656 144.40625 235.9375 C 142.898438 233.261719 138.851562 229.425781 134.582031 229.277344 C 134 229.320312 133.398438 229.363281 132.816406 229.773438 C 129.511719 232.070312 135.011719 239.648438 141.105469 241.1875 " fill-opacity="1" fill-rule="nonzero"/><path fill="#ffffff" d="M 148.207031 224.871094 C 147 221.917969 143.15625 217.769531 138.402344 217.800781 C 137.964844 217.851562 137.359375 217.921875 136.792969 218.191406 C 132.453125 220.242188 135.871094 228.128906 142.167969 230.601562 C 147.019531 232.503906 150.125 229.5625 148.207031 224.871094 " fill-opacity="1" fill-rule="nonzero"/><path fill="#ffffff" d="M 153.953125 212.355469 C 153 209.140625 149.335938 204.699219 144.175781 204.914062 C 143.984375 204.945312 143.730469 204.972656 143.542969 205.011719 C 137.863281 206.210938 138.90625 214.640625 145.1875 218.273438 C 150.757812 221.496094 155.671875 218.175781 153.953125 212.355469 " fill-opacity="1" fill-rule="nonzero"/><path fill="#ffffff" d="M 151.558594 190.6875 C 151.359375 190.726562 151.085938 190.761719 150.886719 190.8125 C 144.75 192.292969 145.097656 201.433594 151.433594 205.195312 C 157.007812 208.503906 162.632812 204.667969 161.296875 198.464844 C 160.550781 195 157.035156 190.296875 151.558594 190.6875 " fill-opacity="1" fill-rule="nonzero"/><path fill="#ffffff" d="M 142.039062 250.105469 C 144.703125 250.453125 145.035156 248.441406 142.789062 245.523438 C 140.949219 243.132812 136.6875 239.621094 132.964844 239.300781 C 132.46875 239.3125 131.953125 239.324219 131.527344 239.652344 C 128.894531 241.6875 136.65625 249.40625 142.039062 250.105469 " fill-opacity="1" fill-rule="nonzero"/><path fill="#ffffff" d="M 144.949219 257.421875 C 146.4375 257.386719 145.863281 255.855469 143.523438 253.617188 C 141.480469 251.660156 137.011719 248.371094 133.722656 247.871094 C 133.316406 247.851562 132.894531 247.832031 132.628906 248.085938 C 130.898438 249.746094 141.144531 257.511719 144.949219 257.421875 " fill-opacity="1" fill-rule="nonzero"/><path fill="#ffffff" d="M 126.976562 220.253906 C 131.992188 222.71875 135.261719 219.46875 133.335938 213.929688 C 132.132812 210.464844 128.238281 205.492188 123.347656 205.289062 C 123.003906 205.320312 122.535156 205.363281 122.203125 205.460938 C 117.054688 207.003906 120.265625 216.957031 126.976562 220.253906 " fill-opacity="1" fill-rule="nonzero"/><path fill="#ffffff" d="M 126.074219 231.527344 C 130.019531 232.875 131.65625 230.046875 129.503906 225.601562 C 127.964844 222.417969 123.832031 217.753906 119.46875 217.347656 C 119.066406 217.359375 118.523438 217.375 118.039062 217.601562 C 113.890625 219.535156 119.519531 229.296875 126.074219 231.527344 " fill-opacity="1" fill-rule="nonzero"/><path fill="#ffffff" d="M 82.054688 143.824219 C 82.375 140.015625 82.085938 134.085938 80.433594 132.816406 C 80.308594 132.769531 80.128906 132.710938 80 132.734375 C 77.203125 133.21875 76.410156 148.0625 79.042969 150.585938 C 80.289062 151.777344 81.640625 148.742188 82.054688 143.824219 " fill-opacity="1" fill-rule="nonzero"/><path fill="#ffffff" d="M 76.507812 144.199219 C 76.4375 144.144531 76.332031 144.054688 76.242188 144.0625 C 74.5625 144.25 75.324219 160.402344 77.097656 162.257812 C 77.847656 163.042969 78.34375 160.164062 78.25 155.5625 C 78.171875 151.730469 77.582031 145.671875 76.507812 144.199219 " fill-opacity="1" fill-rule="nonzero"/><path fill="#ffffff" d="M 138.542969 200.847656 C 137.699219 197.40625 134.304688 192.5625 129.414062 192.570312 C 129.058594 192.613281 128.582031 192.675781 128.246094 192.789062 C 123.082031 194.492188 124.636719 203.632812 130.691406 207.171875 C 135.722656 210.113281 139.976562 206.683594 138.542969 200.847656 " fill-opacity="1" fill-rule="nonzero"/><path fill="#ffffff" d="M 136.308594 193.160156 C 141.578125 196.914062 147.0625 193.097656 145.921875 186.46875 C 145.300781 182.84375 142.089844 177.828125 136.90625 178.023438 C 136.714844 178.050781 136.457031 178.082031 136.265625 178.121094 C 130.386719 179.410156 130.414062 188.964844 136.308594 193.160156 " fill-opacity="1" fill-rule="nonzero"/><path fill="#ffffff" d="M 126.828125 240.667969 C 129.355469 241.199219 129.636719 239.046875 127.46875 235.765625 C 125.710938 233.109375 121.671875 229.113281 118.199219 228.554688 C 117.738281 228.539062 117.261719 228.519531 116.871094 228.84375 C 114.5 230.800781 121.945312 239.636719 126.828125 240.667969 " fill-opacity="1" fill-rule="nonzero"/><path fill="#ffffff" d="M 129.886719 248.757812 C 131.207031 248.8125 130.5625 247.078125 128.320312 244.546875 C 126.203125 242.160156 121.960938 238.476562 119.140625 237.757812 C 118.769531 237.710938 118.417969 237.667969 118.214844 237.921875 C 116.875 239.613281 126.582031 248.625 129.886719 248.757812 " fill-opacity="1" fill-rule="nonzero"/><g clip-path="url(#4f36db428d)"><path fill="#ffffff" d="M 76.144531 128.953125 C 76.128906 128.917969 76.109375 128.871094 76.09375 128.835938 C 76.058594 128.835938 76.015625 128.832031 75.980469 128.828125 C 75.101562 130.304688 74.257812 143.777344 74.941406 145.398438 C 74.976562 145.398438 75.019531 145.402344 75.054688 145.402344 C 75.4375 144.699219 75.757812 141.34375 75.917969 139.40625 C 76.183594 136.148438 76.476562 130.433594 76.144531 128.953125 " fill-opacity="1" fill-rule="nonzero"/></g><path fill="#ffffff" d="M 79.6875 128.25 C 80.335938 124.824219 80.875 119.433594 80.050781 118.183594 C 79.984375 118.132812 79.878906 118.0625 79.796875 118.074219 C 77.988281 118.273438 75.671875 132.675781 77.1875 134.292969 C 77.832031 134.980469 78.90625 132.382812 79.6875 128.25 " fill-opacity="1" fill-rule="nonzero"/><path fill="#ffffff" d="M 85.804688 116.863281 C 86.769531 113.5 87.550781 108.285156 86.273438 107.230469 C 86.21875 107.210938 86.148438 107.171875 86.089844 107.164062 C 83.601562 106.753906 79.914062 119.660156 81.65625 122.679688 C 82.554688 124.242188 84.457031 121.578125 85.804688 116.863281 " fill-opacity="1" fill-rule="nonzero"/><path fill="#ffffff" d="M 88.382812 111.03125 C 89.453125 112.984375 92.101562 110.261719 93.941406 105.316406 C 95.160156 102.035156 96.132812 97.03125 94.480469 96.175781 C 91.386719 95.628906 86.484375 107.566406 88.382812 111.03125 " fill-opacity="1" fill-rule="nonzero"/><path fill="#ffffff" d="M 87.9375 131.417969 C 88.558594 127.949219 88.53125 122.632812 86.535156 121.660156 C 86.457031 121.648438 86.351562 121.617188 86.269531 121.609375 C 83.046875 121.441406 80.675781 133.808594 83.253906 137.367188 C 84.746094 139.429688 87.023438 136.539062 87.9375 131.417969 " fill-opacity="1" fill-rule="nonzero"/><path fill="#ffffff" d="M 89.902344 124.988281 C 91.613281 127.507812 94.769531 124.550781 96.160156 119.132812 C 97.03125 115.726562 97.175781 110.585938 94.769531 109.828125 C 90.476562 109.484375 87.476562 121.421875 89.902344 124.988281 " fill-opacity="1" fill-rule="nonzero"/><path fill="#ffffff" d="M 118.273438 133.1875 C 118.636719 129.660156 117.386719 124.59375 113.484375 124.382812 C 108 124.882812 105.871094 134.667969 109.140625 139.027344 C 112.300781 143.242188 117.59375 139.859375 118.273438 133.1875 " fill-opacity="1" fill-rule="nonzero"/><path fill="#ffffff" d="M 128.304688 146.195312 C 128.359375 142.605469 126.421875 137.542969 121.949219 137.523438 C 115.671875 138.316406 114.378906 148.179688 118.632812 152.539062 C 122.605469 156.605469 128.207031 152.929688 128.304688 146.195312 " fill-opacity="1" fill-rule="nonzero"/><path fill="#ffffff" d="M 130.414062 165.679688 C 135.070312 169.5625 140.929688 165.625 140.527344 158.878906 C 140.3125 155.253906 137.773438 150.222656 132.804688 150.402344 C 125.96875 151.472656 125.363281 161.472656 130.414062 165.679688 " fill-opacity="1" fill-rule="nonzero"/><path fill="#ffffff" d="M 145.738281 162.933594 C 138.925781 164.1875 138.449219 173.535156 143.476562 177.863281 C 148.683594 182.34375 155.429688 178.277344 154.582031 171.164062 C 154.148438 167.519531 151.117188 162.558594 145.738281 162.933594 " fill-opacity="1" fill-rule="nonzero"/><path fill="#ffffff" d="M 107.65625 111.128906 C 102.605469 111.378906 99.742188 121.742188 102.515625 125.789062 C 104.957031 129.351562 109.492188 126.144531 110.742188 119.976562 C 111.4375 116.535156 110.941406 111.519531 107.65625 111.128906 " fill-opacity="1" fill-rule="nonzero"/><path fill="#ffffff" d="M 98.445312 112.390625 C 100.210938 115.324219 104.113281 112.339844 105.902344 106.683594 C 106.957031 103.363281 107.25 98.441406 104.613281 97.902344 C 100.074219 97.886719 96.207031 108.675781 98.445312 112.390625 " fill-opacity="1" fill-rule="nonzero"/><path fill="#ffffff" d="M 111.613281 180.75 L 111.558594 180.84375 L 111.570312 180.855469 Z M 111.613281 180.75 " fill-opacity="1" fill-rule="nonzero"/><path fill="#ffffff" d="M 114.964844 194.433594 L 115.066406 194.523438 L 114.976562 194.433594 C 114.972656 194.433594 114.96875 194.433594 114.964844 194.433594 " fill-opacity="1" fill-rule="nonzero"/><path fill="#ffffff" d="M 157.421875 239.195312 C 162.433594 241.164062 165.898438 238.460938 163.929688 234.125 C 162.765625 231.566406 159.046875 228.058594 154.414062 228.261719 C 153.929688 228.335938 153.328125 228.425781 152.757812 228.71875 C 148.890625 230.675781 151.679688 236.945312 157.421875 239.195312 " fill-opacity="1" fill-rule="nonzero"/><path fill="#ffffff" d="M 156.675781 249.296875 C 160.484375 250.035156 162.050781 247.75 159.957031 244.507812 C 158.605469 242.414062 154.859375 239.109375 150.542969 239.160156 C 150.257812 239.175781 149.386719 239.238281 148.714844 239.722656 C 145.675781 241.914062 150.882812 248.179688 156.675781 249.296875 " fill-opacity="1" fill-rule="nonzero"/><path fill="#ffffff" d="M 137.839844 131.65625 C 138.027344 128.292969 136.339844 123.613281 132.003906 123.738281 C 126.722656 124.292969 124.128906 132.816406 127.863281 137.351562 C 131.421875 141.667969 137.480469 138.207031 137.839844 131.65625 " fill-opacity="1" fill-rule="nonzero"/><path fill="#ffffff" d="M 123.703125 111.3125 C 118.484375 111.996094 116.058594 120.84375 118.914062 124.777344 C 121.726562 128.652344 127 125.609375 128.011719 119.527344 C 128.574219 116.167969 127.605469 111.398438 123.703125 111.3125 " fill-opacity="1" fill-rule="nonzero"/><path fill="#ffffff" d="M 78.371094 118.054688 C 78.964844 117.738281 80.007812 114.488281 80.578125 112.578125 C 80.804688 111.820312 82.769531 105.152344 82.480469 103.53125 C 82.453125 103.480469 82.402344 103.417969 82.355469 103.398438 C 82.328125 103.410156 82.289062 103.421875 82.261719 103.4375 C 80.914062 104.347656 77.351562 117.734375 78.371094 118.054688 " fill-opacity="1" fill-rule="nonzero"/><path fill="#ffffff" d="M 169.550781 222.046875 C 168.621094 219.425781 165.390625 215.667969 160.292969 216.0625 C 159.910156 216.132812 159.394531 216.226562 159.027344 216.355469 C 154.265625 218.054688 155.65625 224.933594 161.316406 227.6875 C 166.195312 230.058594 171.460938 227.445312 169.550781 222.046875 " fill-opacity="1" fill-rule="nonzero"/><path fill="#ffffff" d="M 148.96875 262.835938 C 149.671875 262.71875 148.089844 261.371094 146.371094 260.144531 C 144.421875 258.757812 140.050781 255.964844 137.472656 255.328125 C 137.164062 255.289062 136.898438 255.25 136.832031 255.421875 C 136.347656 256.644531 147.011719 263.152344 148.96875 262.835938 " fill-opacity="1" fill-rule="nonzero"/><path fill="#ffffff" d="M 157.25 257.390625 C 159.929688 257.574219 160.292969 255.925781 158.117188 253.464844 C 156.6875 251.851562 152.921875 248.769531 148.894531 248.648438 C 148.355469 248.683594 147.847656 248.71875 147.421875 249.035156 C 144.964844 250.875 152.21875 257.042969 157.25 257.390625 " fill-opacity="1" fill-rule="nonzero"/><path fill="#ffffff" d="M 112.59375 112.09375 C 114.546875 114.976562 119.113281 112.769531 120.621094 106.972656 C 121.175781 104.847656 121.785156 99.269531 118.015625 99 C 113.25 99.449219 110.195312 108.5625 112.59375 112.09375 " fill-opacity="1" fill-rule="nonzero"/><path fill="#ffffff" d="M 86.695312 102.035156 C 87.699219 99.566406 89.421875 94.589844 88.753906 93.421875 C 88.71875 93.398438 88.679688 93.359375 88.640625 93.34375 C 87.105469 92.816406 82.234375 105.007812 83.15625 107.078125 C 83.605469 108.085938 85.09375 105.96875 86.695312 102.035156 " fill-opacity="1" fill-rule="nonzero"/><path fill="#ffffff" d="M 142.714844 136.179688 C 136.277344 137.363281 135.6875 146.015625 139.257812 149.738281 C 143.089844 153.734375 149.867188 150.921875 149.691406 143.824219 C 149.582031 139.164062 146.449219 135.734375 142.714844 136.179688 " fill-opacity="1" fill-rule="nonzero"/><path fill="#ffffff" d="M 169.296875 182.980469 C 168.742188 179.804688 165.9375 175.277344 160.480469 175.816406 C 154.019531 176.835938 153.914062 185.773438 158.917969 189.492188 C 163.707031 193.050781 170.496094 189.875 169.296875 182.980469 " fill-opacity="1" fill-rule="nonzero"/><path fill="#ffffff" d="M 167.082031 214.511719 C 172.359375 217.816406 178.191406 214.398438 176.835938 208.796875 C 175.882812 204.863281 171.640625 201.917969 167.757812 202.492188 C 167.558594 202.535156 167.292969 202.578125 167.097656 202.628906 C 161.746094 204.054688 161.738281 211.164062 167.082031 214.511719 " fill-opacity="1" fill-rule="nonzero"/><path fill="#ffffff" d="M 104.125 85.609375 C 100.761719 85.398438 96.167969 95.414062 97.445312 98.347656 C 98.371094 100.476562 101.414062 98.105469 103.476562 93.65625 C 104.742188 90.929688 106.03125 86.335938 104.125 85.609375 " fill-opacity="1" fill-rule="nonzero"/><path fill="#ffffff" d="M 159.816406 263.882812 C 161.128906 263.773438 160.683594 262.554688 158.738281 260.921875 C 156.089844 258.703125 151.824219 256.675781 149.609375 256.582031 C 149.203125 256.589844 148.820312 256.597656 148.570312 256.832031 C 146.90625 258.398438 156.15625 264.195312 159.816406 263.882812 " fill-opacity="1" fill-rule="nonzero"/><path fill="#ffffff" d="M 115.070312 86.769531 C 111.292969 87.015625 107.046875 95.277344 108.757812 99.042969 C 110.125 102.046875 114.25 99.253906 116.117188 94.0625 C 117.132812 91.238281 117.480469 87.109375 115.070312 86.769531 " fill-opacity="1" fill-rule="nonzero"/><path fill="#ffffff" d="M 90.226562 96.105469 C 90.722656 97.425781 92.917969 95.082031 94.921875 91.089844 C 96.257812 88.425781 97.832031 84.105469 96.960938 83.296875 C 96.957031 83.296875 96.953125 83.289062 96.949219 83.289062 C 94.925781 82.503906 89.210938 93.40625 90.226562 96.105469 " fill-opacity="1" fill-rule="nonzero"/><path fill="#ffffff" d="M 155.496094 148.375 C 149.707031 149.285156 148.050781 157.738281 152.851562 161.878906 C 157.558594 165.9375 163.941406 162.101562 163.359375 155.5625 C 163.066406 152.296875 160.4375 147.910156 155.496094 148.375 " fill-opacity="1" fill-rule="nonzero"/><path fill="#ffffff" d="M 179.527344 242.539062 C 178.316406 239.617188 174.019531 237.234375 170.691406 237.636719 C 170.386719 237.691406 169.976562 237.769531 169.683594 237.871094 C 165.992188 239.1875 166.914062 244.167969 172.570312 246.566406 C 177.621094 248.707031 180.976562 246.035156 179.527344 242.539062 " fill-opacity="1" fill-rule="nonzero"/><path fill="#ffffff" d="M 175.460938 252.125 C 174.203125 250.203125 170.464844 247.632812 166.714844 247.804688 C 166.039062 247.875 165.484375 248.0625 165.070312 248.363281 C 162.421875 250.285156 166.476562 254.96875 171.742188 256.070312 C 175.789062 256.917969 177.085938 254.605469 175.460938 252.125 " fill-opacity="1" fill-rule="nonzero"/><path fill="#ffffff" d="M 142.324219 110.0625 C 137.960938 110.636719 134.804688 118.046875 138.273438 122.296875 C 141.472656 126.222656 147.054688 123.140625 147.605469 117.148438 C 147.890625 114.035156 146.214844 109.84375 142.324219 110.0625 " fill-opacity="1" fill-rule="nonzero"/><path fill="#ffffff" d="M 138.101562 105.382812 C 138.78125 101.484375 136.921875 98.140625 134.199219 98.367188 C 129.636719 99.132812 126.761719 106.738281 129.609375 110.511719 C 132.332031 114.117188 137.21875 110.4375 138.101562 105.382812 " fill-opacity="1" fill-rule="nonzero"/><path fill="#ffffff" d="M 90.28125 87.890625 C 90.84375 86.84375 93.660156 81.554688 93.558594 80.234375 C 93.542969 80.210938 93.53125 80.171875 93.507812 80.15625 C 92.625 79.503906 86.707031 90.734375 87.175781 92.171875 C 87.363281 92.738281 88.550781 91.097656 90.28125 87.890625 " fill-opacity="1" fill-rule="nonzero"/><path fill="#ffffff" d="M 123.3125 98.320312 C 125.03125 101.316406 129.644531 99.035156 131.066406 93.371094 C 131.714844 90.796875 131.617188 86.949219 128.691406 86.894531 C 124.453125 87.464844 121.445312 95.070312 123.3125 98.320312 " fill-opacity="1" fill-rule="nonzero"/><path fill="#ffffff" d="M 152.867188 121.832031 C 147.761719 122.632812 145.714844 130.5625 149.640625 134.3125 C 153.453125 137.953125 159.371094 134.335938 159.234375 128.453125 C 159.171875 125.664062 157.382812 121.402344 152.867188 121.832031 " fill-opacity="1" fill-rule="nonzero"/><path fill="#ffffff" d="M 185.101562 230.859375 C 183.886719 227.722656 180.101562 225.582031 176.664062 226.089844 C 176.324219 226.160156 175.871094 226.25 175.546875 226.371094 C 171.238281 227.917969 172.1875 233.527344 177.160156 235.894531 C 182.148438 238.269531 186.824219 235.304688 185.101562 230.859375 " fill-opacity="1" fill-rule="nonzero"/><path fill="#ffffff" d="M 173.480469 260.238281 C 171.355469 258.050781 167.558594 256.382812 165.007812 256.523438 C 164.585938 256.566406 163.875 256.644531 163.476562 257.0625 C 161.773438 258.851562 168.101562 263.335938 172.5 263.457031 C 174.945312 263.527344 175.355469 262.171875 173.480469 260.238281 " fill-opacity="1" fill-rule="nonzero"/><path fill="#ffffff" d="M 114.804688 75.070312 C 112 74.8125 106.789062 83.144531 107.832031 86.214844 C 108.5625 88.363281 111.792969 86.613281 114.222656 81.800781 C 115.300781 79.664062 116.808594 75.511719 114.804688 75.070312 " fill-opacity="1" fill-rule="nonzero"/><path fill="#ffffff" d="M 163.863281 268.796875 C 164.480469 268.667969 163.546875 267.84375 161.363281 266.589844 C 160.828125 266.28125 156.023438 263.558594 152.988281 263.125 C 152.667969 263.105469 152.367188 263.089844 152.265625 263.242188 C 151.574219 264.273438 161.871094 269.203125 163.863281 268.796875 " fill-opacity="1" fill-rule="nonzero"/><path fill="#ffffff" d="M 192.492188 218.324219 C 191.886719 215.871094 189.175781 212.464844 184.171875 213.121094 C 184.171875 213.121094 184.167969 213.121094 184.167969 213.121094 C 184.167969 213.121094 184.164062 213.121094 184.164062 213.121094 C 184.164062 213.121094 184.160156 213.125 184.160156 213.125 C 184.160156 213.125 184.15625 213.125 184.15625 213.125 C 183.390625 213.300781 181.800781 213.667969 180.71875 215.125 C 178.144531 218.609375 181.628906 225.28125 188.359375 224.390625 C 188.363281 224.390625 188.363281 224.390625 188.363281 224.390625 C 188.367188 224.390625 188.367188 224.390625 188.367188 224.390625 C 188.371094 224.390625 188.371094 224.390625 188.371094 224.390625 C 188.371094 224.390625 188.371094 224.390625 188.371094 224.386719 C 188.375 224.386719 188.375 224.386719 188.375 224.386719 C 193.535156 223.203125 192.613281 218.820312 192.492188 218.324219 " fill-opacity="1" fill-rule="nonzero"/><path fill="#ffffff" d="M 185.085938 194.226562 C 184.597656 191.414062 181.8125 187.195312 176.433594 187.847656 C 170.167969 189.3125 170.203125 196.980469 175.09375 200.195312 C 180.101562 203.484375 186.082031 199.914062 185.085938 194.226562 " fill-opacity="1" fill-rule="nonzero"/><path fill="#ffffff" d="M 170.042969 160.464844 C 164.257812 161.535156 163.039062 169.847656 168.121094 173.546875 C 172.996094 177.089844 179.125 173.097656 178.210938 166.96875 C 177.675781 163.390625 174.632812 159.894531 170.042969 160.464844 " fill-opacity="1" fill-rule="nonzero"/><path fill="#ffffff" d="M 84.097656 97.613281 C 84.945312 95.589844 86.9375 90.746094 87.1875 89.542969 C 87.191406 89.511719 87.191406 89.46875 87.195312 89.4375 C 87.171875 89.4375 87.144531 89.4375 87.125 89.4375 C 86.289062 90.46875 81.617188 101.523438 82.007812 102.207031 C 82.132812 102.035156 82.421875 101.628906 84.097656 97.613281 " fill-opacity="1" fill-rule="nonzero"/><path fill="#ffffff" d="M 151.691406 265.191406 C 146.179688 262.332031 144.605469 261.644531 143.792969 261.347656 C 143.789062 261.347656 143.789062 261.347656 143.789062 261.347656 C 143.789062 261.347656 143.789062 261.34375 143.785156 261.34375 C 143.707031 261.324219 143.601562 261.292969 143.519531 261.28125 C 143.515625 261.300781 143.507812 261.324219 143.503906 261.34375 C 144.648438 262.425781 154.28125 267.082031 155.421875 267.257812 C 155.378906 267.164062 155.34375 267.085938 151.691406 265.191406 " fill-opacity="1" fill-rule="nonzero"/><path fill="#ffffff" d="M 99.242188 84.804688 C 99.648438 86.234375 101.894531 84.824219 104.472656 80.507812 C 104.617188 80.257812 108.082031 74.414062 106.585938 73.492188 C 104.011719 73.085938 98.59375 82.503906 99.242188 84.804688 " fill-opacity="1" fill-rule="nonzero"/><path fill="#ffffff" d="M 174.488281 269.109375 C 174.488281 269.109375 174.492188 269.109375 174.492188 269.109375 C 174.496094 269.109375 174.496094 269.109375 174.496094 269.109375 C 174.585938 269.101562 174.703125 269.101562 174.789062 269.089844 C 176.023438 268.945312 175.6875 268.046875 173.933594 266.792969 C 171.457031 265.019531 167.734375 263.601562 165.636719 263.625 C 165.261719 263.648438 164.875 263.675781 164.628906 263.875 C 163.292969 264.984375 170.089844 269.019531 174.488281 269.109375 " fill-opacity="1" fill-rule="nonzero"/><path fill="#ffffff" d="M 125.945312 75.582031 C 125.523438 75.628906 124.886719 75.695312 123.8125 76.566406 C 119.964844 79.691406 117.800781 87.113281 121.4375 87.375 C 121.4375 87.375 121.441406 87.375 121.441406 87.375 C 121.441406 87.375 121.441406 87.375 121.445312 87.375 C 124.453125 87.066406 126.417969 82.609375 126.632812 82.101562 C 127.960938 78.957031 128 75.585938 125.945312 75.582031 " fill-opacity="1" fill-rule="nonzero"/><path fill="#ffffff" d="M 101.777344 70.933594 C 100.820312 70.710938 93.625 80.242188 94.589844 82.199219 C 94.589844 82.199219 94.589844 82.199219 94.59375 82.203125 C 94.589844 82.203125 94.59375 82.203125 94.59375 82.203125 C 95.425781 82.683594 98.332031 78.273438 98.660156 77.769531 C 99.699219 76.175781 102.296875 71.851562 101.871094 70.984375 C 101.84375 70.96875 101.808594 70.941406 101.777344 70.933594 " fill-opacity="1" fill-rule="nonzero"/><path fill="#ffffff" d="M 165.546875 133.472656 C 159.339844 134.933594 159.21875 142.699219 162.894531 145.808594 C 166.710938 149.039062 173.097656 146.125 172.675781 139.933594 C 172.390625 135.738281 169.191406 132.84375 165.546875 133.472656 " fill-opacity="1" fill-rule="nonzero"/><path fill="#ffffff" d="M 179.96875 144.90625 C 174.816406 146.246094 173.328125 152.859375 177.355469 156.507812 C 182 160.714844 187.996094 156.53125 187.523438 151.054688 C 187.265625 148.070312 184.496094 144.273438 179.96875 144.90625 " fill-opacity="1" fill-rule="nonzero"/><path fill="#ffffff" d="M 194.039062 178.347656 C 193.511719 174.4375 189.535156 171.421875 185.851562 172.144531 C 180.558594 173.542969 179.296875 180.4375 183.671875 184.046875 C 188.832031 188.304688 194.800781 184.007812 194.039062 178.347656 " fill-opacity="1" fill-rule="nonzero"/><path fill="#ffffff" d="M 200.925781 204.074219 C 200.285156 200.683594 196.378906 198.140625 192.882812 198.835938 C 187.6875 200.191406 186.6875 206.332031 191.160156 209.433594 C 196.269531 212.976562 201.855469 209.003906 200.925781 204.074219 " fill-opacity="1" fill-rule="nonzero"/><path fill="#ffffff" d="M 109.769531 73.796875 C 110.023438 75.632812 112.992188 73.230469 115.25 69.980469 C 116.867188 67.648438 118.511719 64.179688 117.394531 63.730469 C 115.023438 63.648438 109.390625 71.082031 109.769531 73.796875 " fill-opacity="1" fill-rule="nonzero"/><path fill="#ffffff" d="M 194.414062 249.546875 C 193.457031 247.191406 189.660156 245.300781 186.746094 245.730469 C 186.476562 245.785156 186.109375 245.859375 185.851562 245.953125 C 182.761719 247.082031 183.175781 250.910156 187.648438 252.859375 C 192.21875 254.851562 195.636719 252.550781 194.414062 249.546875 " fill-opacity="1" fill-rule="nonzero"/><path fill="#ffffff" d="M 158.796875 268.117188 C 158.714844 268.105469 158.605469 268.09375 158.523438 268.09375 C 158.511719 268.113281 158.5 268.140625 158.488281 268.160156 C 159.46875 269.121094 167.96875 272.09375 169.898438 272.390625 C 169.917969 272.375 169.945312 272.351562 169.960938 272.335938 C 169.636719 272.128906 168.507812 271.640625 166.605469 270.886719 C 166.003906 270.648438 160.699219 268.550781 158.796875 268.117188 " fill-opacity="1" fill-rule="nonzero"/><path fill="#ffffff" d="M 119.226562 74.550781 C 119.867188 76.542969 122.996094 74.464844 125.210938 70.582031 C 126.410156 68.472656 127.679688 65.011719 125.960938 64.714844 C 123.160156 64.914062 118.375 71.898438 119.226562 74.550781 " fill-opacity="1" fill-rule="nonzero"/><path fill="#ffffff" d="M 178.761719 273.148438 C 179.238281 272.875 177.214844 271.902344 176.585938 271.613281 C 174.152344 270.488281 170.46875 269.230469 168.746094 269.15625 C 168.472656 269.160156 168.191406 269.164062 168.105469 269.304688 C 167.496094 270.308594 177.457031 273.902344 178.761719 273.148438 " fill-opacity="1" fill-rule="nonzero"/><path fill="#ffffff" d="M 152.476562 96.648438 C 148.167969 97.605469 146.042969 104.207031 148.972656 107.515625 C 151.824219 110.734375 156.816406 107.75 157.191406 102.605469 C 157.445312 99.097656 155.199219 96.257812 152.476562 96.648438 " fill-opacity="1" fill-rule="nonzero"/><path fill="#ffffff" d="M 144.523438 85.769531 C 140.679688 86.535156 138.097656 92.824219 140.265625 96.121094 C 142.410156 99.375 147.074219 96.683594 147.945312 91.699219 C 148.539062 88.320312 146.90625 85.496094 144.523438 85.769531 " fill-opacity="1" fill-rule="nonzero"/><path fill="#ffffff" d="M 186.390625 261.570312 C 190.164062 262.359375 191.660156 260.464844 190.238281 258.363281 C 188.875 256.347656 185.261719 254.796875 182.65625 255.113281 C 182.160156 255.199219 181.695312 255.28125 181.214844 255.609375 C 178.921875 257.1875 181.921875 260.640625 186.390625 261.570312 " fill-opacity="1" fill-rule="nonzero"/><path fill="#ffffff" d="M 103.804688 71.863281 C 103.972656 72.863281 105.972656 71.21875 108.359375 68.121094 C 108.402344 68.070312 112.40625 62.851562 111.652344 62.011719 C 110.066406 61.578125 103.46875 69.863281 103.804688 71.863281 " fill-opacity="1" fill-rule="nonzero"/><path fill="#ffffff" d="M 187.203125 268.160156 C 189.332031 268.132812 189.722656 267.046875 188.132812 265.578125 C 186.871094 264.414062 183.886719 262.746094 180.824219 262.921875 C 180.457031 262.960938 179.785156 263.074219 179.441406 263.417969 C 177.921875 264.933594 183.289062 268.214844 187.203125 268.160156 " fill-opacity="1" fill-rule="nonzero"/><path fill="#ffffff" d="M 139.203125 75.15625 C 135.871094 75.488281 132.644531 82.160156 134.414062 85.074219 C 135.867188 87.46875 139.886719 85.445312 141.191406 80.757812 C 141.824219 78.476562 141.820312 75.097656 139.203125 75.15625 " fill-opacity="1" fill-rule="nonzero"/><path fill="#ffffff" d="M 162.882812 107.691406 C 158.394531 108.496094 156.570312 115.351562 159.96875 118.636719 C 163.058594 121.625 168.714844 119 168.558594 113.402344 C 168.488281 110.839844 166.917969 107.203125 162.882812 107.691406 " fill-opacity="1" fill-rule="nonzero"/><path fill="#ffffff" d="M 200.203125 238.746094 C 199.566406 236.949219 196.992188 234.316406 192.796875 234.882812 C 192.5 234.9375 192.046875 235.042969 191.597656 235.234375 C 188.070312 236.71875 188.757812 241.15625 192.804688 243.019531 C 197.082031 244.992188 201.507812 242.433594 200.203125 238.746094 " fill-opacity="1" fill-rule="nonzero"/><path fill="#ffffff" d="M 96.382812 74.390625 C 98.085938 71.917969 100.171875 68.769531 100.449219 67.84375 C 100.4375 67.8125 100.425781 67.773438 100.414062 67.746094 C 99.414062 68.085938 93.417969 77.105469 93.660156 77.902344 C 93.769531 77.863281 94.070312 77.761719 96.382812 74.390625 " fill-opacity="1" fill-rule="nonzero"/><path fill="#ffffff" d="M 104.804688 65.417969 C 104.847656 65.367188 108.941406 60.433594 108.949219 59.507812 C 108.9375 59.492188 108.917969 59.472656 108.90625 59.457031 C 107.746094 59.40625 100.75 68.058594 101.34375 68.8125 C 101.855469 68.851562 103.734375 66.703125 104.804688 65.417969 " fill-opacity="1" fill-rule="nonzero"/><path fill="#ffffff" d="M 174.414062 273.160156 C 174.144531 273.144531 174.144531 273.144531 174.074219 273.210938 C 174.707031 273.832031 183.675781 276.046875 184.507812 275.789062 C 184.394531 275.726562 184.214844 275.625 181.675781 274.917969 C 178.027344 273.90625 175.582031 273.316406 174.414062 273.160156 " fill-opacity="1" fill-rule="nonzero"/><path fill="#ffffff" d="M 195.6875 156.253906 C 190.769531 157.394531 189.5 164.023438 193.566406 167.335938 C 197.933594 170.890625 203.914062 167.367188 203.121094 161.703125 C 202.738281 158.980469 200.179688 155.488281 195.6875 156.253906 " fill-opacity="1" fill-rule="nonzero"/><path fill="#ffffff" d="M 203.847656 231.976562 C 203.847656 231.976562 203.847656 231.976562 203.851562 231.976562 C 203.851562 231.976562 203.851562 231.976562 203.855469 231.976562 C 203.855469 231.976562 203.855469 231.976562 203.859375 231.976562 C 203.859375 231.976562 203.859375 231.976562 203.863281 231.976562 C 203.867188 231.976562 203.867188 231.976562 203.867188 231.976562 C 203.871094 231.976562 203.871094 231.972656 203.871094 231.972656 C 208.464844 230.828125 207.742188 227.132812 207.644531 226.714844 C 207.167969 224.667969 204.851562 221.882812 200.421875 222.582031 C 198.675781 222.941406 197.742188 223.863281 197.339844 224.382812 C 194.800781 227.652344 198.324219 232.824219 203.84375 231.980469 C 203.84375 231.980469 203.84375 231.980469 203.847656 231.976562 " fill-opacity="1" fill-rule="nonzero"/><path fill="#ffffff" d="M 136.675781 64.785156 C 133.976562 64.972656 130.265625 71.003906 131.160156 73.75 C 131.910156 76.039062 135.351562 74.414062 137.222656 70.035156 C 138.078125 68.039062 138.683594 64.847656 136.675781 64.785156 " fill-opacity="1" fill-rule="nonzero"/><path fill="#ffffff" d="M 114.570312 61.847656 C 114.535156 63 116.773438 61.441406 119.359375 58.515625 C 120.691406 57.015625 123.230469 53.75 122.582031 53.265625 C 120.917969 53.09375 114.628906 59.835938 114.570312 61.847656 " fill-opacity="1" fill-rule="nonzero"/><path fill="#ffffff" d="M 189.40625 272.828125 C 190.179688 272.59375 189.710938 271.894531 188.21875 271.050781 C 186.960938 270.335938 183.898438 269 181.332031 269.0625 C 181.328125 269.0625 181.328125 269.0625 181.328125 269.0625 C 181.324219 269.0625 181.324219 269.0625 181.324219 269.0625 C 181.324219 269.0625 181.324219 269.0625 181.320312 269.0625 C 181.320312 269.0625 181.316406 269.0625 181.316406 269.0625 C 181.011719 269.09375 180.5 269.144531 180.328125 269.40625 C 179.46875 270.703125 187.015625 273.550781 189.40625 272.828125 " fill-opacity="1" fill-rule="nonzero"/><path fill="#ffffff" d="M 175.414062 118.660156 C 175.414062 118.660156 175.414062 118.660156 175.410156 118.660156 C 175.410156 118.660156 175.410156 118.664062 175.40625 118.664062 C 175.402344 118.664062 175.402344 118.664062 175.402344 118.664062 C 175.398438 118.664062 175.398438 118.664062 175.398438 118.664062 C 175.394531 118.664062 175.394531 118.664062 175.394531 118.664062 C 175.390625 118.664062 175.390625 118.667969 175.390625 118.667969 C 175.386719 118.667969 175.386719 118.667969 175.386719 118.667969 C 169.890625 120.148438 169.933594 127.132812 173.273438 129.683594 C 177.066406 132.585938 182.246094 129.214844 181.804688 124.132812 C 181.589844 121.683594 179.667969 118.035156 175.414062 118.660156 " fill-opacity="1" fill-rule="nonzero"/><path fill="#ffffff" d="M 168.371094 272.125 L 168.722656 272.226562 C 168.460938 272.148438 168.191406 272.070312 167.9375 271.992188 L 168.371094 272.125 " fill-opacity="1" fill-rule="nonzero"/><path fill="#ffffff" d="M 209.898438 188.570312 C 209.25 185.105469 205.8125 182.816406 202.394531 183.570312 C 196.859375 185.125 196.617188 191.730469 200.773438 194.421875 C 205.230469 197.304688 210.859375 193.695312 209.898438 188.570312 " fill-opacity="1" fill-rule="nonzero"/><path fill="#ffffff" d="M 121.414062 63.144531 C 121.691406 64.519531 124.332031 62.722656 126.738281 59.519531 C 127.882812 58 129.871094 54.757812 128.71875 54.445312 C 126.898438 54.289062 120.929688 60.769531 121.414062 63.144531 " fill-opacity="1" fill-rule="nonzero"/><path fill="#ffffff" d="M 216.289062 213.28125 C 215.984375 210.667969 213.019531 208.199219 209.25 208.847656 C 204.898438 210.054688 203.65625 214.839844 207 217.523438 C 211.230469 220.925781 216.789062 217.613281 216.289062 213.28125 " fill-opacity="1" fill-rule="nonzero"/><path fill="#ffffff" d="M 192.867188 276.003906 C 193.230469 275.800781 191.59375 275.210938 191.085938 275.035156 C 189 274.316406 185.683594 273.523438 184.261719 273.539062 C 184.054688 273.550781 183.703125 273.570312 183.703125 273.734375 C 183.699219 274.558594 191.835938 276.574219 192.867188 276.003906 " fill-opacity="1" fill-rule="nonzero"/><path fill="#ffffff" d="M 189.765625 129.453125 C 189.765625 129.453125 189.761719 129.453125 189.761719 129.453125 C 189.761719 129.453125 189.761719 129.453125 189.757812 129.453125 C 189.757812 129.453125 189.757812 129.453125 189.753906 129.453125 C 189.753906 129.457031 189.753906 129.457031 189.753906 129.457031 C 189.75 129.457031 189.75 129.457031 189.75 129.457031 C 189.746094 129.457031 189.746094 129.457031 189.746094 129.457031 C 189.742188 129.457031 189.742188 129.457031 189.742188 129.457031 C 189.742188 129.457031 189.738281 129.457031 189.738281 129.457031 C 184.945312 130.851562 183.945312 137.417969 188.09375 140.269531 C 192.441406 143.257812 197.195312 139.136719 196.511719 134.476562 C 196.148438 131.980469 193.597656 128.84375 189.765625 129.453125 " fill-opacity="1" fill-rule="nonzero"/><path fill="#ffffff" d="M 130.902344 63.179688 C 131.371094 64.769531 134.160156 62.910156 136.140625 59.695312 C 137.058594 58.199219 138.464844 55.0625 136.964844 54.875 C 134.507812 55.175781 130.257812 60.996094 130.902344 63.179688 " fill-opacity="1" fill-rule="nonzero"/><path fill="#ffffff" d="M 110.941406 59.703125 C 110.941406 59.703125 110.941406 59.703125 110.941406 59.707031 C 110.941406 59.707031 110.941406 59.707031 110.945312 59.707031 C 111.53125 59.953125 114.25 57.21875 115.070312 56.375 C 115.234375 56.203125 119.125 52.183594 118.9375 51.488281 C 118.917969 51.476562 118.890625 51.460938 118.871094 51.457031 C 118.066406 51.320312 110.386719 58.324219 110.941406 59.703125 " fill-opacity="1" fill-rule="nonzero"/><path fill="#ffffff" d="M 208.121094 255.265625 C 207.488281 253.90625 205.167969 252.183594 201.988281 252.621094 C 201.542969 252.703125 201.089844 252.855469 200.753906 253.035156 C 198.382812 254.308594 199.417969 257.175781 202.664062 258.320312 C 206.125 259.539062 209.285156 257.769531 208.121094 255.265625 " fill-opacity="1" fill-rule="nonzero"/><path fill="#ffffff" d="M 159.230469 92.890625 C 161.75 95.617188 166.039062 92.804688 166.082031 88.394531 C 166.101562 86.273438 164.851562 83.429688 162.007812 83.753906 C 158.519531 84.40625 156.753906 90.210938 159.230469 92.890625 " fill-opacity="1" fill-rule="nonzero"/><path fill="#ffffff" d="M 200.378906 265.933594 C 203.339844 266.46875 205.121094 265.199219 203.910156 263.414062 C 202.851562 261.855469 199.984375 260.777344 197.769531 261.101562 C 197.410156 261.171875 196.808594 261.289062 196.359375 261.648438 C 194.757812 262.917969 197.011719 265.324219 200.378906 265.933594 " fill-opacity="1" fill-rule="nonzero"/><path fill="#ffffff" d="M 154.207031 73.773438 C 150.699219 74.546875 149.039062 80.394531 150.988281 82.625 C 152.789062 84.6875 156.574219 82.628906 157.128906 78.410156 C 157.453125 75.933594 156.429688 73.457031 154.207031 73.773438 " fill-opacity="1" fill-rule="nonzero"/><path fill="#ffffff" d="M 214.179688 245.402344 C 213.6875 243.945312 211.679688 241.984375 208.171875 242.554688 C 208.003906 242.589844 207.640625 242.6875 207.636719 242.6875 C 204.0625 243.773438 204.46875 247.394531 207.429688 248.933594 C 211.039062 250.8125 215.265625 248.601562 214.179688 245.402344 " fill-opacity="1" fill-rule="nonzero"/><path fill="#ffffff" d="M 149.09375 64.015625 C 146.402344 64.359375 143.75 69.847656 145.15625 72.175781 C 146.328125 74.113281 149.621094 72.4375 150.707031 68.613281 C 151.253906 66.699219 151.269531 63.898438 149.09375 64.015625 " fill-opacity="1" fill-rule="nonzero"/><path fill="#ffffff" d="M 172.28125 93.976562 C 167.800781 95.148438 167.558594 101.089844 170.140625 103.320312 C 172.820312 105.625 177.417969 103.316406 177.203125 98.734375 C 177.058594 95.609375 174.847656 93.476562 172.28125 93.976562 " fill-opacity="1" fill-rule="nonzero"/><path fill="#ffffff" d="M 200.871094 271.574219 C 202.558594 271.46875 202.890625 270.683594 201.683594 269.667969 C 200.417969 268.605469 197.859375 267.65625 195.773438 267.910156 C 195.453125 267.960938 194.914062 268.050781 194.613281 268.332031 C 193.371094 269.5 197.753906 271.773438 200.871094 271.574219 " fill-opacity="1" fill-rule="nonzero"/><path fill="#ffffff" d="M 202.617188 275.300781 C 203.21875 275.117188 202.898438 274.683594 201.777344 274.164062 C 200.578125 273.609375 198.082031 272.832031 196.101562 272.957031 C 195.800781 272.988281 195.414062 273.0625 195.289062 273.246094 C 194.703125 274.144531 200.796875 275.851562 202.617188 275.300781 " fill-opacity="1" fill-rule="nonzero"/><path fill="#ffffff" d="M 133.441406 52.871094 C 133.65625 53.84375 135.855469 52.390625 137.960938 49.878906 C 139.617188 47.902344 140.835938 45.738281 140.003906 45.667969 C 138.058594 45.839844 133.089844 51.292969 133.441406 52.871094 " fill-opacity="1" fill-rule="nonzero"/><path fill="#ffffff" d="M 189.800781 276.40625 C 189.570312 276.402344 189.570312 276.402344 189.515625 276.453125 C 190.113281 276.828125 197.820312 277.855469 198.382812 277.628906 C 198.183594 277.578125 197.917969 277.539062 195.867188 277.226562 C 192.628906 276.734375 190.847656 276.460938 189.800781 276.40625 " fill-opacity="1" fill-rule="nonzero"/><path fill="#ffffff" d="M 147.152344 58.839844 C 148.09375 56.746094 148.1875 54.480469 146.8125 54.585938 C 144.382812 55.03125 141.347656 60.105469 142.304688 62.128906 C 143.078125 63.765625 145.75 61.957031 147.152344 58.839844 " fill-opacity="1" fill-rule="nonzero"/><path fill="#ffffff" d="M 122.011719 50.714844 C 121.890625 51.386719 123.695312 50.214844 126.203125 48 C 126.246094 47.960938 130.390625 44.265625 130.09375 43.773438 C 128.980469 43.570312 122.257812 49.34375 122.011719 50.714844 " fill-opacity="1" fill-rule="nonzero"/><path fill="#ffffff" d="M 212.207031 167.445312 C 206.980469 169.019531 207.191406 175.0625 210.277344 177.542969 C 213.882812 180.441406 219.832031 177.777344 219.0625 172.355469 C 218.566406 168.84375 215.488281 166.640625 212.207031 167.445312 " fill-opacity="1" fill-rule="nonzero"/><path fill="#ffffff" d="M 134.042969 45.027344 C 132.4375 44.996094 126.328125 50.804688 126.441406 52.25 C 126.503906 53.003906 128.300781 52.054688 131.105469 49.207031 C 131.257812 49.054688 134.828125 45.414062 134.042969 45.027344 " fill-opacity="1" fill-rule="nonzero"/><path fill="#ffffff" d="M 218.890625 194.066406 C 214.191406 195.257812 213.636719 200.8125 216.960938 203.164062 C 220.675781 205.792969 226.050781 202.664062 225.414062 198.238281 C 225.121094 196.175781 223.089844 193.226562 218.890625 194.066406 " fill-opacity="1" fill-rule="nonzero"/><path fill="#ffffff" d="M 109.074219 56.457031 C 109.085938 56.433594 109.085938 56.398438 109.085938 56.375 C 108.332031 56.710938 102.25 63.902344 102.238281 64.472656 C 102.410156 64.367188 102.863281 63.886719 104.855469 61.566406 C 108.117188 57.765625 108.8125 56.890625 109.074219 56.457031 " fill-opacity="1" fill-rule="nonzero"/><path fill="#ffffff" d="M 205.425781 140.3125 C 200.160156 141.917969 200.597656 148.195312 203.988281 150.449219 C 207.914062 153.058594 212.804688 149.738281 212.039062 144.980469 C 211.511719 141.703125 208.484375 139.566406 205.425781 140.3125 " fill-opacity="1" fill-rule="nonzero"/><path fill="#ffffff" d="M 184.71875 104.152344 C 180.320312 105.410156 179.945312 111.234375 183.15625 113.5625 C 186.511719 116 190.90625 112.894531 190.277344 108.53125 C 189.988281 106.527344 188.222656 103.570312 184.71875 104.152344 " fill-opacity="1" fill-rule="nonzero"/><path fill="#ffffff" d="M 221.835938 234.097656 C 221.429688 232.109375 219.222656 230.320312 215.929688 230.921875 C 211.875 231.863281 211.445312 235.890625 214.226562 237.808594 C 217.585938 240.125 222.566406 237.699219 221.835938 234.097656 " fill-opacity="1" fill-rule="nonzero"/><path fill="#ffffff" d="M 113.496094 53.667969 C 113.535156 53.632812 117.550781 49.769531 117.8125 49.089844 C 117.8125 49.089844 117.8125 49.089844 117.800781 49.050781 C 116.9375 49.019531 110.101562 55.683594 110.261719 56.402344 C 110.566406 56.429688 112.417969 54.703125 113.496094 53.667969 " fill-opacity="1" fill-rule="nonzero"/><path fill="#ffffff" d="M 197.832031 123.503906 C 201.609375 125.976562 205.535156 122.421875 204.828125 118.480469 C 204.457031 116.425781 202.339844 113.6875 198.96875 114.324219 C 195.304688 115.257812 193.992188 120.992188 197.832031 123.503906 " fill-opacity="1" fill-rule="nonzero"/><path fill="#ffffff" d="M 230.597656 221.167969 C 230.324219 219.097656 228.078125 217.253906 224.929688 217.882812 C 221.53125 218.742188 219.792969 222.851562 222.84375 225.136719 C 226.355469 227.761719 231.0625 224.710938 230.597656 221.167969 " fill-opacity="1" fill-rule="nonzero"/><path fill="#ffffff" d="M 198.957031 276.292969 C 198.621094 276.320312 198.527344 276.351562 198.5 276.4375 C 198.8125 277.054688 205.027344 277.730469 205.824219 277.429688 C 205.828125 277.414062 205.832031 277.390625 205.832031 277.375 C 205.769531 277.328125 205.597656 277.203125 204.078125 276.902344 C 203.511719 276.789062 200.605469 276.234375 198.957031 276.292969 " fill-opacity="1" fill-rule="nonzero"/><path fill="#ffffff" d="M 142.273438 52.257812 C 142.492188 53.519531 144.609375 52.394531 146.484375 49.515625 C 147.675781 47.683594 148.34375 45.726562 147.351562 45.761719 C 145.546875 46.035156 141.988281 50.589844 142.273438 52.257812 " fill-opacity="1" fill-rule="nonzero"/><path fill="#ffffff" d="M 123.734375 46.039062 C 125.28125 44.792969 127.894531 42.625 128.011719 42.140625 C 127.535156 41.714844 120.429688 47.453125 120.332031 48.339844 C 120.394531 48.402344 120.578125 48.589844 123.734375 46.039062 " fill-opacity="1" fill-rule="nonzero"/><path fill="#ffffff" d="M 168.679688 78.84375 C 170.601562 80.6875 173.976562 78.855469 173.875 75.203125 C 173.835938 73.78125 173.082031 71.183594 170.507812 71.550781 C 167.558594 72.175781 166.753906 76.992188 168.679688 78.84375 " fill-opacity="1" fill-rule="nonzero"/><path fill="#ffffff" d="M 215.898438 258.332031 C 215.707031 258.378906 215.453125 258.4375 215.269531 258.507812 C 212.960938 259.335938 213.472656 261.460938 215.527344 262.386719 C 217.878906 263.445312 221.21875 262.335938 220.453125 260.234375 C 220.085938 259.226562 218.574219 257.894531 215.898438 258.332031 " fill-opacity="1" fill-rule="nonzero"/><path fill="#ffffff" d="M 165.261719 66.09375 C 165.46875 64.074219 164.636719 62.160156 162.878906 62.453125 C 160.164062 63.113281 159.011719 67.625 160.554688 69.390625 C 162 71.042969 164.914062 69.441406 165.261719 66.09375 " fill-opacity="1" fill-rule="nonzero"/><path fill="#ffffff" d="M 212.84375 269.164062 C 215.035156 269.566406 216.980469 268.75 216.039062 267.324219 C 215.277344 266.164062 213.28125 265.5 211.496094 265.808594 C 211.207031 265.871094 210.726562 265.976562 210.355469 266.238281 C 209.121094 267.113281 210.492188 268.726562 212.84375 269.164062 " fill-opacity="1" fill-rule="nonzero"/><path fill="#ffffff" d="M 226.730469 251.214844 C 226.457031 250.089844 225.023438 248.605469 222.203125 249.132812 C 218.859375 250.019531 219.03125 252.777344 221.027344 253.933594 C 223.660156 255.464844 227.339844 253.710938 226.730469 251.214844 " fill-opacity="1" fill-rule="nonzero"/><path fill="#ffffff" d="M 221.925781 151.042969 C 217.347656 152.316406 217.566406 157.960938 220.429688 160.09375 C 223.671875 162.503906 228.871094 159.789062 227.957031 155.039062 C 227.617188 153.265625 225.917969 150.152344 221.925781 151.042969 " fill-opacity="1" fill-rule="nonzero"/><path fill="#ffffff" d="M 145.621094 37.339844 C 144.238281 37.417969 138.871094 41.972656 138.863281 43.078125 C 138.859375 43.632812 140.3125 42.902344 142.75 40.722656 C 142.785156 40.691406 146.257812 37.574219 145.621094 37.339844 " fill-opacity="1" fill-rule="nonzero"/><path fill="#ffffff" d="M 134.261719 42.234375 C 134.21875 42.699219 135.769531 41.796875 138.121094 39.984375 C 138.5 39.699219 141.800781 37.148438 141.84375 36.636719 C 141.832031 36.625 141.820312 36.613281 141.808594 36.601562 C 140.765625 36.539062 134.347656 41.328125 134.261719 42.234375 " fill-opacity="1" fill-rule="nonzero"/><path fill="#ffffff" d="M 227.101562 186.996094 C 230.222656 189.28125 235.402344 186.757812 234.757812 182.207031 C 234.507812 180.445312 232.953125 177.355469 228.855469 178.269531 C 223.875 179.898438 224.632812 185.1875 227.101562 186.996094 " fill-opacity="1" fill-rule="nonzero"/><path fill="#ffffff" d="M 179.304688 88.328125 C 181.824219 90.402344 185.265625 87.925781 184.796875 84.375 C 184.585938 82.769531 183.273438 80.386719 180.648438 80.824219 C 177.675781 81.515625 176.820312 86.28125 179.304688 88.328125 " fill-opacity="1" fill-rule="nonzero"/><path fill="#ffffff" d="M 240.007812 206.714844 C 239.691406 204.4375 237.183594 202.953125 234.75 203.601562 C 231.136719 204.777344 229.96875 208.90625 232.671875 210.96875 C 235.976562 213.488281 240.496094 210.226562 240.007812 206.714844 " fill-opacity="1" fill-rule="nonzero"/><path fill="#ffffff" d="M 213.285156 273.804688 C 214.332031 273.625 214.472656 273.078125 213.628906 272.476562 C 212.9375 271.980469 211.148438 271.28125 209.292969 271.507812 C 208.683594 271.601562 208.429688 271.785156 208.324219 271.925781 C 207.597656 272.863281 211.074219 274.175781 213.285156 273.804688 " fill-opacity="1" fill-rule="nonzero"/><path fill="#ffffff" d="M 155.054688 59.960938 C 156.007812 61.597656 158.476562 59.976562 159.246094 57.207031 C 159.761719 55.363281 159.359375 53.441406 157.96875 53.628906 C 155.851562 54.117188 154 58.140625 155.054688 59.960938 " fill-opacity="1" fill-rule="nonzero"/><path fill="#ffffff" d="M 230.140625 238.277344 C 227.355469 239.109375 226.269531 241.855469 228.097656 243.429688 C 230.675781 245.652344 234.796875 243.46875 234.605469 240.734375 C 234.484375 238.976562 232.273438 237.761719 230.140625 238.277344 " fill-opacity="1" fill-rule="nonzero"/><path fill="#ffffff" d="M 195.011719 98.347656 C 195.015625 98.347656 195.015625 98.347656 195.015625 98.347656 C 195.015625 98.347656 195.019531 98.347656 195.019531 98.347656 C 195.019531 98.347656 195.019531 98.347656 195.023438 98.347656 C 195.027344 98.347656 195.027344 98.34375 195.027344 98.34375 C 197.398438 97.578125 197.929688 95.1875 197.710938 93.769531 C 197.347656 91.425781 195.054688 89.683594 192.992188 90.179688 C 192.570312 90.3125 191.703125 90.589844 190.984375 91.71875 C 188.976562 94.847656 191.5 99 195.011719 98.347656 " fill-opacity="1" fill-rule="nonzero"/><path fill="#ffffff" d="M 213.34375 132.847656 C 216.992188 135.59375 221.039062 132.257812 220.320312 128.359375 C 219.890625 126.035156 217.585938 123.902344 214.609375 124.511719 C 211.007812 125.703125 210.273438 130.535156 213.34375 132.847656 " fill-opacity="1" fill-rule="nonzero"/><path fill="#ffffff" d="M 131.820312 40.734375 C 132.148438 40.835938 134.429688 39.316406 135.394531 38.65625 C 135.433594 38.628906 139.425781 35.890625 139.535156 35.464844 C 138.765625 35.273438 131.769531 40.054688 131.820312 40.734375 " fill-opacity="1" fill-rule="nonzero"/><path fill="#ffffff" d="M 155.917969 45.242188 C 154.324219 45.59375 151.882812 49.289062 152.507812 50.941406 C 153.066406 52.402344 155.25 50.511719 156.207031 48.21875 C 156.820312 46.742188 156.832031 45.152344 155.917969 45.242188 " fill-opacity="1" fill-rule="nonzero"/><path fill="#ffffff" d="M 150.742188 37.589844 C 149.632812 37.617188 145.203125 41.789062 145.230469 43.140625 C 145.246094 44.003906 147.226562 42.546875 148.859375 40.761719 C 149.824219 39.707031 151.367188 37.691406 150.742188 37.589844 " fill-opacity="1" fill-rule="nonzero"/><path fill="#ffffff" d="M 213.636719 275.910156 C 212.550781 275.558594 210.53125 275.257812 209.457031 275.390625 C 209.257812 275.421875 208.925781 275.472656 208.878906 275.632812 C 208.648438 276.363281 213.464844 276.921875 214.347656 276.519531 C 214.703125 276.355469 214.214844 276.097656 213.636719 275.910156 " fill-opacity="1" fill-rule="nonzero"/><path fill="#ffffff" d="M 119.054688 46.257812 C 119.0625 46.242188 119.074219 46.21875 119.085938 46.199219 C 118.625 46.402344 112.933594 51.617188 112.636719 52.257812 C 112.742188 52.183594 112.742188 52.183594 115.089844 49.996094 C 118.097656 47.195312 118.8125 46.53125 119.054688 46.257812 " fill-opacity="1" fill-rule="nonzero"/><path fill="#ffffff" d="M 123.773438 43.402344 C 127.472656 40.582031 127.75 40.257812 127.953125 40.019531 C 127.558594 39.804688 121.199219 44.671875 121.148438 45.226562 C 121.210938 45.230469 121.359375 45.242188 123.773438 43.402344 " fill-opacity="1" fill-rule="nonzero"/><path fill="#ffffff" d="M 147.109375 34.308594 C 147.265625 34.5 148.242188 33.964844 150.59375 32.394531 C 151.09375 32.058594 153.582031 30.382812 153.699219 30.066406 C 153.691406 30.058594 153.683594 30.054688 153.675781 30.046875 C 153.210938 29.984375 147.199219 33.507812 147.109375 34.308594 " fill-opacity="1" fill-rule="nonzero"/><path fill="#ffffff" d="M 243.460938 228.65625 C 243.464844 228.621094 243.277344 225.046875 239.324219 226.109375 C 234.773438 227.5 236.746094 231.140625 237.175781 231.582031 C 238.644531 233.085938 243.257812 232.289062 243.460938 228.65625 " fill-opacity="1" fill-rule="nonzero"/><path fill="#ffffff" d="M 156.679688 37.539062 C 155.46875 37.78125 152.734375 41.1875 152.882812 42.269531 C 152.992188 43.09375 154.550781 42.199219 155.859375 40.273438 C 156.175781 39.808594 157.703125 37.484375 156.679688 37.539062 " fill-opacity="1" fill-rule="nonzero"/><path fill="#ffffff" d="M 215.859375 277.488281 C 213.832031 277.402344 212.925781 277.390625 212.257812 277.445312 C 211.914062 277.480469 211.902344 277.503906 211.882812 277.542969 C 212.335938 277.800781 216.578125 277.734375 217.195312 277.582031 C 217.15625 277.554688 217.140625 277.542969 215.859375 277.488281 " fill-opacity="1" fill-rule="nonzero"/><path fill="#ffffff" d="M 243.160156 195.351562 C 243.765625 195.804688 245.4375 196.699219 247.816406 195.132812 C 248.59375 194.621094 249.851562 193.421875 249.53125 191.152344 C 249.105469 188.183594 246.71875 187.78125 244.800781 188.339844 C 240.933594 189.695312 241.335938 193.980469 243.160156 195.351562 " fill-opacity="1" fill-rule="nonzero"/><path fill="#ffffff" d="M 237.171875 169.554688 C 239.066406 171.125 244.351562 170.230469 243.824219 165.144531 C 243.816406 165.097656 243.140625 160.535156 238.699219 161.671875 C 233.960938 163.09375 235.585938 168.238281 237.171875 169.554688 " fill-opacity="1" fill-rule="nonzero"/><path fill="#ffffff" d="M 230.171875 142.300781 C 230.535156 142.550781 232.46875 143.714844 234.671875 142.1875 C 235.632812 141.523438 236.683594 140.273438 236.214844 138.113281 C 235.613281 135.308594 233.605469 134.035156 230.976562 134.789062 C 227.121094 136.171875 227.992188 140.8125 230.171875 142.300781 " fill-opacity="1" fill-rule="nonzero"/><path fill="#ffffff" d="M 206.691406 106.894531 C 208.886719 108.175781 212.820312 106.988281 211.972656 103.046875 C 211.53125 101.003906 209.796875 99.210938 207.335938 99.742188 C 203.464844 100.828125 204.472656 105.601562 206.691406 106.894531 " fill-opacity="1" fill-rule="nonzero"/><path fill="#ffffff" d="M 138.492188 34.125 C 138.496094 34.113281 138.480469 34.101562 138.472656 34.09375 C 137.839844 34.113281 132.371094 37.449219 131.609375 38.441406 C 131.941406 38.394531 132.726562 37.957031 134.71875 36.695312 C 137.546875 34.90625 138.390625 34.328125 138.492188 34.125 " fill-opacity="1" fill-rule="nonzero"/><path fill="#ffffff" d="M 223.257812 269.324219 C 223.046875 269.375 222.6875 269.457031 222.433594 269.636719 C 221.792969 270.085938 222.011719 271.019531 223.628906 271.390625 C 225.007812 271.707031 226.898438 271.199219 226.257812 270.160156 C 225.867188 269.523438 224.785156 269.019531 223.257812 269.324219 " fill-opacity="1" fill-rule="nonzero"/><path fill="#ffffff" d="M 151.207031 34.765625 C 151.722656 34.578125 152.429688 34.21875 154.097656 32.886719 C 155.457031 31.796875 157.015625 30.480469 156.699219 30.40625 C 156.699219 30.40625 156.695312 30.40625 156.695312 30.40625 C 156.011719 30.445312 150.628906 34.203125 151.207031 34.765625 " fill-opacity="1" fill-rule="nonzero"/><path fill="#ffffff" d="M 144.539062 33.480469 C 145.113281 33.324219 146.035156 32.84375 148.066406 31.65625 C 151.488281 29.652344 151.527344 29.535156 151.566406 29.425781 C 151.0625 29.355469 144.9375 32.683594 144.539062 33.480469 " fill-opacity="1" fill-rule="nonzero"/><path fill="#ffffff" d="M 227.878906 262.925781 C 227.773438 262.949219 227.667969 262.976562 227.566406 263.011719 C 226.199219 263.433594 225.484375 264.832031 227.222656 265.679688 C 228.753906 266.429688 231.335938 265.527344 230.867188 264.0625 C 230.78125 263.792969 230.226562 262.464844 227.878906 262.925781 " fill-opacity="1" fill-rule="nonzero"/><path fill="#ffffff" d="M 168.71875 56.980469 C 169.476562 57.960938 171.753906 57.652344 172.015625 54.570312 C 172.019531 54.542969 172.003906 51.820312 170.195312 52.074219 C 168.132812 52.515625 167.859375 55.871094 168.71875 56.980469 " fill-opacity="1" fill-rule="nonzero"/><path fill="#ffffff" d="M 176.714844 65.496094 C 176.726562 65.503906 177.886719 66.46875 178.972656 65.699219 C 179.363281 65.425781 180.402344 64.695312 180.289062 62.980469 C 180.28125 62.851562 180.050781 59.800781 177.6875 60.207031 C 175.375 60.746094 175.316406 64.316406 176.714844 65.496094 " fill-opacity="1" fill-rule="nonzero"/><path fill="#ffffff" d="M 234.347656 254.789062 C 232.046875 255.433594 231.949219 257.238281 233.101562 258.070312 C 234.394531 259.003906 237.578125 258.15625 237.3125 256.128906 C 237.152344 254.890625 236.015625 254.375 234.347656 254.789062 " fill-opacity="1" fill-rule="nonzero"/><path fill="#ffffff" d="M 222.359375 115.835938 C 224.132812 116.964844 228.066406 116.214844 227.386719 112.191406 C 227.277344 111.53125 226.027344 108.371094 222.785156 109.308594 C 219.046875 110.589844 220.8125 114.851562 222.359375 115.835938 " fill-opacity="1" fill-rule="nonzero"/><path fill="#ffffff" d="M 249.351562 212.457031 C 245.570312 213.730469 246.535156 216.996094 247.132812 217.757812 C 248.542969 219.550781 252.890625 218.449219 253.117188 214.859375 C 253.152344 214.304688 252.605469 211.507812 249.351562 212.457031 " fill-opacity="1" fill-rule="nonzero"/><path fill="#ffffff" d="M 126.46875 40.027344 C 129.472656 37.816406 129.472656 37.816406 129.65625 37.65625 C 129.675781 37.636719 129.699219 37.613281 129.710938 37.59375 C 129.230469 37.796875 124.90625 41.019531 124.566406 41.421875 C 125.238281 41.011719 125.835938 40.492188 126.46875 40.027344 " fill-opacity="1" fill-rule="nonzero"/><g clip-path="url(#61fd731065)"><path fill="#ffffff" d="M 150.214844 28.65625 C 149.988281 28.527344 144.484375 31.21875 143.835938 31.933594 C 144.015625 31.984375 144.855469 31.570312 146.804688 30.558594 C 149.53125 29.136719 150.136719 28.800781 150.214844 28.65625 " fill-opacity="1" fill-rule="nonzero"/></g><path fill="#ffffff" d="M 223.15625 275.023438 C 224.066406 274.898438 224.246094 274.660156 223.722656 274.28125 C 223.710938 274.273438 222.570312 273.5625 220.933594 273.851562 C 220.738281 273.890625 220.332031 273.972656 220.203125 274.144531 C 219.890625 274.5625 221.554688 275.25 223.15625 275.023438 " fill-opacity="1" fill-rule="nonzero"/><path fill="#ffffff" d="M 166.371094 46.617188 C 166.566406 45.523438 166.566406 44.242188 165.445312 44.375 C 163.738281 44.703125 163.058594 47.957031 163.679688 48.761719 C 164.261719 49.515625 165.945312 48.972656 166.371094 46.617188 " fill-opacity="1" fill-rule="nonzero"/><path fill="#ffffff" d="M 245.332031 246.4375 C 245.300781 245.625 244.90625 244.335938 242.574219 244.902344 C 239.171875 245.949219 240.566406 248.3125 240.878906 248.59375 C 242.011719 249.621094 245.40625 248.675781 245.332031 246.4375 " fill-opacity="1" fill-rule="nonzero"/><path fill="#ffffff" d="M 158.84375 32.585938 C 158.910156 32.515625 159 32.425781 159.066406 32.359375 C 160.632812 30.734375 160.539062 30.550781 160.332031 30.554688 C 159.523438 30.683594 156.40625 33.570312 156.359375 34.234375 C 156.335938 34.53125 156.933594 34.53125 158.84375 32.585938 " fill-opacity="1" fill-rule="nonzero"/><path fill="#ffffff" d="M 187.207031 74.070312 C 188.675781 75.042969 191.46875 74.121094 190.863281 71.191406 C 190.546875 69.664062 189.550781 68.191406 187.707031 68.640625 C 184.898438 69.480469 185.871094 73.1875 187.207031 74.070312 " fill-opacity="1" fill-rule="nonzero"/><path fill="#ffffff" d="M 199.820312 82.515625 C 201.578125 83.546875 204.253906 82.269531 203.449219 79.5625 C 203.121094 78.46875 202.242188 76.699219 200.023438 77.207031 C 197.15625 78 198.378906 81.671875 199.820312 82.515625 " fill-opacity="1" fill-rule="nonzero"/><path fill="#ffffff" d="M 246.832031 151.0625 C 248.414062 152.507812 252.453125 152.027344 252.101562 147.488281 C 252.003906 146.207031 250.453125 145.164062 250.433594 145.152344 C 249.441406 144.535156 248.5 144.789062 247.996094 144.929688 C 244.515625 146.074219 245.5 149.84375 246.832031 151.0625 " fill-opacity="1" fill-rule="nonzero"/><path fill="#ffffff" d="M 220.980469 276.433594 C 220.84375 276.457031 220.554688 276.507812 220.5625 276.578125 C 220.570312 276.683594 221.234375 276.800781 222.289062 276.808594 C 222.804688 276.8125 224.019531 276.742188 224.074219 276.605469 C 224.042969 276.574219 223.984375 276.546875 223.578125 276.480469 C 223.566406 276.476562 222.105469 276.265625 220.980469 276.433594 " fill-opacity="1" fill-rule="nonzero"/><path fill="#ffffff" d="M 161.433594 40.726562 C 161.503906 40.925781 161.738281 41.335938 162.375 40.867188 C 162.726562 40.605469 163.246094 40.136719 163.679688 39.0625 C 163.988281 38.292969 164.390625 37.015625 163.59375 37.074219 C 162.53125 37.246094 161.132812 39.875 161.433594 40.726562 " fill-opacity="1" fill-rule="nonzero"/><path fill="#ffffff" d="M 253.707031 178.203125 C 254.578125 178.8125 256.308594 178.839844 256.914062 178.417969 C 257.484375 178.023438 259.210938 176.816406 258.859375 174.609375 C 258.574219 172.835938 257.265625 171.371094 254.980469 172.101562 C 251.371094 173.429688 252.414062 177.300781 253.707031 178.203125 " fill-opacity="1" fill-rule="nonzero"/><path fill="#ffffff" d="M 135.730469 34.417969 C 135.757812 34.398438 138.605469 32.742188 138.921875 32.441406 C 138.921875 32.433594 138.921875 32.421875 138.921875 32.410156 C 138.453125 32.492188 134.152344 34.984375 133.582031 35.578125 C 133.582031 35.585938 133.585938 35.597656 133.589844 35.605469 C 133.769531 35.554688 134.289062 35.257812 135.730469 34.417969 " fill-opacity="1" fill-rule="nonzero"/><path fill="#ffffff" d="M 259.851562 197.707031 C 257.164062 198.589844 256.917969 201.363281 258.1875 202.636719 C 259.59375 204.050781 262.953125 202.539062 262.910156 199.9375 C 262.898438 199.421875 262.707031 196.894531 259.851562 197.707031 " fill-opacity="1" fill-rule="nonzero"/><path fill="#ffffff" d="M 254.472656 235.023438 C 254.476562 234.355469 254.25 232.867188 252.019531 233.453125 C 249.414062 234.238281 249.480469 236.453125 250.207031 237.21875 C 251.3125 238.382812 254.453125 237.105469 254.472656 235.023438 " fill-opacity="1" fill-rule="nonzero"/><path fill="#ffffff" d="M 239.046875 124.378906 C 240.878906 125.542969 244.042969 124.117188 243.246094 121.242188 C 243.039062 120.5 242.15625 118.132812 239.449219 118.890625 C 236.394531 119.902344 237.539062 123.421875 239.046875 124.378906 " fill-opacity="1" fill-rule="nonzero"/><path fill="#ffffff" d="M 214.113281 90.734375 C 215.429688 91.574219 218.300781 91.046875 217.605469 88.128906 C 217.597656 88.097656 216.785156 85.195312 214.195312 85.953125 C 211.351562 86.925781 213.09375 90.089844 214.113281 90.734375 " fill-opacity="1" fill-rule="nonzero"/><path fill="#ffffff" d="M 163.964844 32.09375 C 164.089844 31.925781 165.148438 30.46875 164.628906 30.46875 C 163.867188 30.625 162.265625 32.816406 162.292969 33.300781 C 162.292969 33.3125 162.519531 34.0625 163.964844 32.09375 " fill-opacity="1" fill-rule="nonzero"/><path fill="#ffffff" d="M 232.773438 271.757812 C 232.691406 271.773438 232.609375 271.796875 232.53125 271.824219 C 231.804688 272.070312 231.988281 272.445312 232.339844 272.625 C 232.914062 272.910156 234.335938 272.675781 234.132812 272.058594 C 234.128906 272.054688 233.828125 271.542969 232.773438 271.757812 " fill-opacity="1" fill-rule="nonzero"/><path fill="#ffffff" d="M 262.160156 220.683594 C 260.773438 221.191406 259.796875 222.910156 260.699219 223.976562 C 261.613281 225.054688 264.085938 224.046875 264.265625 222.105469 C 264.402344 220.621094 263.308594 220.320312 262.160156 220.683594 " fill-opacity="1" fill-rule="nonzero"/><path fill="#ffffff" d="M 230.003906 98.828125 C 231.675781 99.660156 233.554688 98.339844 232.769531 96.308594 C 232.261719 94.984375 231.089844 94.359375 229.851562 94.757812 C 227.601562 95.601562 228.785156 98.226562 230.003906 98.828125 " fill-opacity="1" fill-rule="nonzero"/><path fill="#ffffff" d="M 237.558594 266.59375 C 236.484375 266.863281 236.3125 267.539062 236.667969 267.882812 C 237.28125 268.484375 238.980469 267.953125 238.941406 267.175781 C 238.925781 266.851562 238.613281 266.363281 237.558594 266.59375 " fill-opacity="1" fill-rule="nonzero"/><path fill="#ffffff" d="M 263.9375 159.691406 C 264.988281 160.476562 267.460938 159.582031 267.097656 157.3125 C 266.917969 156.179688 266.332031 154.945312 264.558594 155.492188 C 262.253906 156.3125 262.953125 158.953125 263.9375 159.691406 " fill-opacity="1" fill-rule="nonzero"/><path fill="#ffffff" d="M 270.210938 182.121094 C 267.992188 182.910156 268.503906 185.332031 269.257812 185.875 C 269.265625 185.882812 270.226562 186.53125 271.410156 185.65625 C 271.675781 185.460938 272.484375 184.863281 272.355469 183.585938 C 272.28125 182.8125 271.902344 181.589844 270.210938 182.121094 " fill-opacity="1" fill-rule="nonzero"/><path fill="#ffffff" d="M 244.207031 259.621094 C 242.554688 260.113281 243.199219 261.226562 243.207031 261.238281 C 243.632812 261.769531 245.457031 261.363281 245.558594 260.28125 C 245.585938 259.96875 245.511719 259.269531 244.207031 259.621094 " fill-opacity="1" fill-rule="nonzero"/><path fill="#ffffff" d="M 193.292969 60.546875 C 194.023438 60.960938 195.554688 60.542969 195.042969 58.949219 C 194.878906 58.441406 194.375 57.292969 193.203125 57.605469 C 191.613281 58.121094 192.589844 60.144531 193.292969 60.546875 " fill-opacity="1" fill-rule="nonzero"/><path fill="#ffffff" d="M 231.453125 275.011719 C 231.3125 274.945312 230.917969 274.808594 230.222656 274.949219 C 230.109375 274.972656 229.875 275.023438 229.835938 275.101562 C 229.726562 275.300781 230.792969 275.417969 231.394531 275.214844 C 231.582031 275.148438 231.601562 275.082031 231.453125 275.011719 " fill-opacity="1" fill-rule="nonzero"/><path fill="#ffffff" d="M 182.980469 52.984375 C 183.507812 53.429688 184.953125 53.382812 184.746094 51.640625 C 184.746094 51.621094 184.460938 49.914062 183.183594 50.222656 C 181.933594 50.601562 182.378906 52.472656 182.980469 52.984375 " fill-opacity="1" fill-rule="nonzero"/><path fill="#ffffff" d="M 171.703125 37.636719 C 171.765625 37.234375 171.847656 36.304688 171.226562 36.394531 C 170.425781 36.566406 170.234375 38.203125 170.546875 38.566406 C 170.835938 38.90625 171.535156 38.691406 171.703125 37.636719 " fill-opacity="1" fill-rule="nonzero"/><path fill="#ffffff" d="M 175.402344 45.679688 C 175.5625 45.8125 175.984375 46.078125 176.476562 45.628906 C 176.683594 45.441406 176.917969 45.066406 176.863281 44.355469 C 176.835938 44.011719 176.679688 42.90625 175.816406 43.09375 C 174.6875 43.414062 174.910156 45.265625 175.402344 45.679688 " fill-opacity="1" fill-rule="nonzero"/><path fill="#ffffff" d="M 256.1875 132.625 C 257.089844 133.164062 259.523438 132.746094 258.984375 130.25 C 258.980469 130.230469 258.425781 128.105469 256.441406 128.714844 C 254.1875 129.519531 255.261719 132.074219 256.1875 132.625 " fill-opacity="1" fill-rule="nonzero"/><path fill="#ffffff" d="M 205.859375 68 C 206.722656 68.328125 206.953125 68.070312 207.246094 67.746094 C 207.390625 67.585938 207.691406 67.128906 207.359375 66.335938 C 206.996094 65.464844 206.203125 65.011719 205.429688 65.234375 C 205.394531 65.25 205.34375 65.261719 205.308594 65.277344 C 204.28125 65.714844 204.652344 67.546875 205.859375 68 " fill-opacity="1" fill-rule="nonzero"/><path fill="#ffffff" d="M 252.652344 250.738281 C 251.5 251.089844 251.144531 252.042969 251.464844 252.515625 C 251.773438 252.964844 252.6875 252.738281 252.695312 252.734375 C 252.703125 252.730469 253.667969 252.21875 253.800781 251.566406 C 253.867188 251.257812 253.796875 250.441406 252.652344 250.738281 " fill-opacity="1" fill-rule="nonzero"/><path fill="#ffffff" d="M 262.230469 240.296875 C 261.054688 240.710938 261.136719 241.710938 261.292969 241.921875 C 261.621094 242.359375 262.945312 241.953125 263.148438 241.015625 C 263.1875 240.832031 263.328125 239.945312 262.230469 240.296875 " fill-opacity="1" fill-rule="nonzero"/><g clip-path="url(#aa5ba77129)"><path fill="#ffffff" d="M 272.859375 206.691406 C 271.667969 207.117188 271.421875 208.542969 271.953125 209.128906 C 272.542969 209.78125 274.234375 208.945312 274.285156 207.703125 C 274.308594 207.144531 274.15625 206.273438 272.859375 206.691406 " fill-opacity="1" fill-rule="nonzero"/></g><path fill="#ffffff" d="M 246.679688 106.570312 C 247.535156 106.996094 249.082031 106.320312 248.519531 104.878906 C 248.304688 104.320312 247.769531 103.433594 246.636719 103.78125 C 244.976562 104.375 245.949219 106.203125 246.679688 106.570312 " fill-opacity="1" fill-rule="nonzero"/><path fill="#ffffff" d="M 220.074219 75.21875 C 220.132812 75.242188 220.679688 75.445312 221.046875 75.09375 C 221.347656 74.804688 221.417969 74.464844 221.257812 74.082031 C 221.253906 74.070312 220.769531 72.917969 219.777344 73.183594 C 219.730469 73.203125 219.683594 73.21875 219.636719 73.242188 C 218.707031 73.675781 219.378906 74.945312 220.074219 75.21875 " fill-opacity="1" fill-rule="nonzero"/><g fill="#ffffff" fill-opacity="1"><g transform="translate(98.100722, 318.539953)"><g><path d="M 13.234375 -24.265625 C 15.335938 -24.265625 17.171875 -23.914062 18.734375 -23.21875 C 20.296875 -22.53125 21.488281 -21.535156 22.3125 -20.234375 C 23.144531 -18.941406 23.5625 -17.40625 23.5625 -15.625 C 23.5625 -13.875 23.144531 -12.34375 22.3125 -11.03125 C 21.488281 -9.726562 20.296875 -8.726562 18.734375 -8.03125 C 17.171875 -7.34375 15.335938 -7 13.234375 -7 L 7.765625 -7 L 7.765625 0 L 3.25 0 L 3.25 -24.265625 Z M 13.03125 -10.8125 C 14.988281 -10.8125 16.476562 -11.226562 17.5 -12.0625 C 18.519531 -12.894531 19.03125 -14.082031 19.03125 -15.625 C 19.03125 -17.175781 18.519531 -18.367188 17.5 -19.203125 C 16.476562 -20.035156 14.988281 -20.453125 13.03125 -20.453125 L 7.765625 -20.453125 L 7.765625 -10.8125 Z M 13.03125 -10.8125 "/></g></g></g><g fill="#ffffff" fill-opacity="1"><g transform="translate(123.252005, 318.539953)"><g><path d="M 21.453125 -3.78125 L 21.453125 0 L 3.25 0 L 3.25 -24.265625 L 20.96875 -24.265625 L 20.96875 -20.484375 L 7.765625 -20.484375 L 7.765625 -14.171875 L 19.484375 -14.171875 L 19.484375 -10.46875 L 7.765625 -10.46875 L 7.765625 -3.78125 Z M 21.453125 -3.78125 "/></g></g></g><g fill="#ffffff" fill-opacity="1"><g transform="translate(146.463244, 318.539953)"><g><path d="M 19.125 0 L 14.171875 -7.109375 C 13.960938 -7.078125 13.648438 -7.0625 13.234375 -7.0625 L 7.765625 -7.0625 L 7.765625 0 L 3.25 0 L 3.25 -24.265625 L 13.234375 -24.265625 C 15.335938 -24.265625 17.171875 -23.914062 18.734375 -23.21875 C 20.296875 -22.53125 21.488281 -21.535156 22.3125 -20.234375 C 23.144531 -18.941406 23.5625 -17.40625 23.5625 -15.625 C 23.5625 -13.800781 23.113281 -12.226562 22.21875 -10.90625 C 21.332031 -9.59375 20.0625 -8.613281 18.40625 -7.96875 L 23.984375 0 Z M 19.03125 -15.625 C 19.03125 -17.175781 18.519531 -18.367188 17.5 -19.203125 C 16.476562 -20.035156 14.988281 -20.453125 13.03125 -20.453125 L 7.765625 -20.453125 L 7.765625 -10.78125 L 13.03125 -10.78125 C 14.988281 -10.78125 16.476562 -11.203125 17.5 -12.046875 C 18.519531 -12.890625 19.03125 -14.082031 19.03125 -15.625 Z M 19.03125 -15.625 "/></g></g></g><g fill="#ffffff" fill-opacity="1"><g transform="translate(171.787753, 318.539953)"><g><path d="M 3.25 -24.265625 L 7.765625 -24.265625 L 7.765625 0 L 3.25 0 Z M 3.25 -24.265625 "/></g></g></g><g fill="#ffffff" fill-opacity="1"><g transform="translate(182.839084, 318.539953)"><g><path d="M 14.59375 0.34375 C 12.113281 0.34375 9.878906 -0.191406 7.890625 -1.265625 C 5.910156 -2.335938 4.351562 -3.828125 3.21875 -5.734375 C 2.09375 -7.640625 1.53125 -9.769531 1.53125 -12.125 C 1.53125 -14.488281 2.09375 -16.625 3.21875 -18.53125 C 4.351562 -20.4375 5.910156 -21.925781 7.890625 -23 C 9.878906 -24.070312 12.113281 -24.609375 14.59375 -24.609375 C 17.0625 -24.609375 19.289062 -24.070312 21.28125 -23 C 23.269531 -21.925781 24.828125 -20.441406 25.953125 -18.546875 C 27.085938 -16.648438 27.65625 -14.507812 27.65625 -12.125 C 27.65625 -9.75 27.085938 -7.613281 25.953125 -5.71875 C 24.828125 -3.820312 23.269531 -2.335938 21.28125 -1.265625 C 19.289062 -0.191406 17.0625 0.34375 14.59375 0.34375 Z M 14.59375 -3.609375 C 16.207031 -3.609375 17.660156 -3.96875 18.953125 -4.6875 C 20.242188 -5.414062 21.257812 -6.429688 22 -7.734375 C 22.738281 -9.046875 23.109375 -10.507812 23.109375 -12.125 C 23.109375 -13.75 22.738281 -15.210938 22 -16.515625 C 21.257812 -17.816406 20.242188 -18.832031 18.953125 -19.5625 C 17.660156 -20.289062 16.207031 -20.65625 14.59375 -20.65625 C 12.976562 -20.65625 11.519531 -20.289062 10.21875 -19.5625 C 8.925781 -18.832031 7.910156 -17.816406 7.171875 -16.515625 C 6.429688 -15.210938 6.0625 -13.75 6.0625 -12.125 C 6.0625 -10.507812 6.429688 -9.046875 7.171875 -7.734375 C 7.910156 -6.429688 8.925781 -5.414062 10.21875 -4.6875 C 11.519531 -3.96875 12.976562 -3.609375 14.59375 -3.609375 Z M 14.59375 -3.609375 "/></g></g></g><g fill="#ffffff" fill-opacity="1"><g transform="translate(212.009029, 318.539953)"><g><path d="M 3.25 -24.265625 L 13.859375 -24.265625 C 16.453125 -24.265625 18.753906 -23.757812 20.765625 -22.75 C 22.773438 -21.75 24.332031 -20.328125 25.4375 -18.484375 C 26.539062 -16.648438 27.09375 -14.53125 27.09375 -12.125 C 27.09375 -9.726562 26.539062 -7.609375 25.4375 -5.765625 C 24.332031 -3.929688 22.773438 -2.507812 20.765625 -1.5 C 18.753906 -0.5 16.453125 0 13.859375 0 L 3.25 0 Z M 13.65625 -3.8125 C 15.4375 -3.8125 17 -4.148438 18.34375 -4.828125 C 19.695312 -5.515625 20.738281 -6.488281 21.46875 -7.75 C 22.195312 -9.007812 22.5625 -10.46875 22.5625 -12.125 C 22.5625 -13.789062 22.195312 -15.253906 21.46875 -16.515625 C 20.738281 -17.773438 19.695312 -18.742188 18.34375 -19.421875 C 17 -20.109375 15.4375 -20.453125 13.65625 -20.453125 L 7.765625 -20.453125 L 7.765625 -3.8125 Z M 13.65625 -3.8125 "/></g></g></g><g fill="#ffffff" fill-opacity="1"><g transform="translate(240.624677, 318.539953)"><g><path d="M 3.25 -24.265625 L 7.765625 -24.265625 L 7.765625 0 L 3.25 0 Z M 3.25 -24.265625 "/></g></g></g><g fill="#ffffff" fill-opacity="1"><g transform="translate(251.676007, 318.539953)"><g><path d="M 14.484375 0.34375 C 12.035156 0.34375 9.820312 -0.191406 7.84375 -1.265625 C 5.875 -2.335938 4.328125 -3.820312 3.203125 -5.71875 C 2.085938 -7.613281 1.53125 -9.75 1.53125 -12.125 C 1.53125 -14.507812 2.09375 -16.648438 3.21875 -18.546875 C 4.351562 -20.441406 5.90625 -21.925781 7.875 -23 C 9.851562 -24.070312 12.066406 -24.609375 14.515625 -24.609375 C 16.503906 -24.609375 18.316406 -24.257812 19.953125 -23.5625 C 21.597656 -22.875 22.988281 -21.867188 24.125 -20.546875 L 21.203125 -17.8125 C 19.453125 -19.707031 17.296875 -20.65625 14.734375 -20.65625 C 13.066406 -20.65625 11.570312 -20.289062 10.25 -19.5625 C 8.9375 -18.832031 7.910156 -17.820312 7.171875 -16.53125 C 6.429688 -15.238281 6.0625 -13.769531 6.0625 -12.125 C 6.0625 -10.488281 6.429688 -9.019531 7.171875 -7.71875 C 7.910156 -6.425781 8.9375 -5.414062 10.25 -4.6875 C 11.570312 -3.96875 13.066406 -3.609375 14.734375 -3.609375 C 17.296875 -3.609375 19.453125 -4.566406 21.203125 -6.484375 L 24.125 -3.703125 C 22.988281 -2.390625 21.59375 -1.382812 19.9375 -0.6875 C 18.289062 0 16.472656 0.34375 14.484375 0.34375 Z M 14.484375 0.34375 "/></g></g></g><g fill="#ffffff" fill-opacity="1"><g transform="translate(156.354963, 342.87391)"><g><path d="M 2.796875 -7 L 0.046875 -7 L 0.046875 -8.3125 L 7.09375 -8.3125 L 7.09375 -7 L 4.34375 -7 L 4.34375 0 L 2.796875 0 Z M 2.796875 -7 "/></g></g></g><g fill="#ffffff" fill-opacity="1"><g transform="translate(169.035175, 342.87391)"><g><path d="M 6.5 -1.921875 L 2.34375 -1.921875 L 1.53125 0 L -0.0625 0 L 3.6875 -8.3125 L 5.203125 -8.3125 L 8.953125 0 L 7.34375 0 Z M 6 -3.140625 L 4.421875 -6.765625 L 2.875 -3.140625 Z M 6 -3.140625 "/></g></g></g><g fill="#ffffff" fill-opacity="1"><g transform="translate(183.460715, 342.87391)"><g><path d="M 7 -4.328125 C 7.457031 -4.171875 7.820312 -3.914062 8.09375 -3.5625 C 8.363281 -3.21875 8.5 -2.78125 8.5 -2.25 C 8.5 -1.53125 8.222656 -0.972656 7.671875 -0.578125 C 7.117188 -0.191406 6.3125 0 5.25 0 L 1.109375 0 L 1.109375 -8.3125 L 5.015625 -8.3125 C 5.992188 -8.3125 6.75 -8.117188 7.28125 -7.734375 C 7.8125 -7.347656 8.078125 -6.820312 8.078125 -6.15625 C 8.078125 -5.738281 7.976562 -5.367188 7.78125 -5.046875 C 7.59375 -4.734375 7.332031 -4.492188 7 -4.328125 Z M 2.65625 -7.09375 L 2.65625 -4.8125 L 4.84375 -4.8125 C 5.382812 -4.8125 5.796875 -4.90625 6.078125 -5.09375 C 6.367188 -5.289062 6.515625 -5.578125 6.515625 -5.953125 C 6.515625 -6.328125 6.367188 -6.609375 6.078125 -6.796875 C 5.796875 -6.992188 5.382812 -7.09375 4.84375 -7.09375 Z M 5.15625 -1.21875 C 6.351562 -1.21875 6.953125 -1.613281 6.953125 -2.40625 C 6.953125 -3.207031 6.351562 -3.609375 5.15625 -3.609375 L 2.65625 -3.609375 L 2.65625 -1.21875 Z M 5.15625 -1.21875 "/></g></g></g><g fill="#ffffff" fill-opacity="1"><g transform="translate(198.028726, 342.87391)"><g><path d="M 1.109375 -8.3125 L 2.65625 -8.3125 L 2.65625 -1.3125 L 7 -1.3125 L 7 0 L 1.109375 0 Z M 1.109375 -8.3125 "/></g></g></g><g fill="#ffffff" fill-opacity="1"><g transform="translate(210.673324, 342.87391)"><g><path d="M 7.34375 -1.296875 L 7.34375 0 L 1.109375 0 L 1.109375 -8.3125 L 7.1875 -8.3125 L 7.1875 -7.015625 L 2.65625 -7.015625 L 2.65625 -4.859375 L 6.671875 -4.859375 L 6.671875 -3.59375 L 2.65625 -3.59375 L 2.65625 -1.296875 Z M 7.34375 -1.296875 "/></g></g></g></svg>